<?xml version="1.0" encoding="UTF-8"?>
<svg id="MapaExpojoveNivel2" xmlns="http://www.w3.org/2000/svg" viewBox="0 0 499.2 827">
  <defs>
    <style>
      .cls_1 {
        fill: #000;
      }

      .cls_1, .cls_2, .cls_3, .cls_4, .cls_5, .cls_6, .cls_7, .cls_8, .cls_9, .cls_10 {
        stroke-width: 0px;
      }

      .cls_11 {
        letter-spacing: -.07em;
      }

      .cls_2 {
        fill: #257c68;
      }

      .cls_12, .cls_13 {
        isolation: isolate;
      }

      .cls_3 {
        fill: #23a55b;
      }

      .cls_4 {
        fill: #f0ec2d;
      }

      .cls_5 {
        fill: #313952;
      }

      .cls_14 {
        fill: #dff2fd;
        stroke: #1d1d1b;
        stroke-miterlimit: 10;
      }

      .cls_6 {
        fill: #e7e7e7;
      }

      .cls_13 {
        font-family: ArialMT, Arial;
        font-size: 21px;
      }

      .cls_13, .cls_8 {
        fill: #fff;
      }

      .cls_7 {
        fill: #fdbe18;
      }

      .cls_15 {
        letter-spacing: -.06em;
      }

      .cls_9 {
        fill: #f60;
      }

      .cls_10 {
        fill: #d6d5d1;
      }
    </style>
  </defs>
  <g id="MEN2">
    <g id="base_mapa" data-name="base mapa">
      <g>
        <path id="bm01" class="cls_10" d="M17.85.15h463.5c4.9,0,9.32,2.45,12.53,6.41s5.18,9.44,5.18,15.49v782.9c0,6.1-1.97,11.58-5.17,15.53s-7.63,6.38-12.53,6.38H17.85c-4.9,0-9.33-2.45-12.53-6.41s-5.18-9.44-5.18-15.49V22.15c0-6.1,1.97-11.6,5.17-15.58S12.95.15,17.85.15Z"/>
        <path class="cls_1" d="M481.35,827H17.85c-4.92,0-9.38-2.47-12.62-6.47s-5.23-9.51-5.23-15.58V22.15c0-6.11,2-11.64,5.23-15.65S12.93,0,17.85,0h463.5c4.92,0,9.38,2.47,12.62,6.47s5.23,9.51,5.23,15.58v782.9c0,2.96-.46,5.83-1.35,8.48s-2.18,5.07-3.86,7.14c-1.68,2.07-3.64,3.68-5.78,4.77s-4.46,1.66-6.86,1.66ZM17.85.3C13.01.3,8.62,2.75,5.45,6.71S.3,16.13.3,22.15v782.8c0,6,1.97,11.43,5.15,15.37s7.57,6.38,12.4,6.38h463.5c4.84,0,9.23-2.44,12.4-6.38s5.15-9.38,5.15-15.37V22.05c0-6-1.97-11.43-5.15-15.37s-7.57-6.38-12.4-6.38H17.85Z"/>
      </g>
    </g>
    <g id="base_mapa_interior" data-name="base mapa interior">
      <g>
        <polygon id="bm02" class="cls_6" points="41.45 53.15 248.1 53.15 454.75 53.15 454.75 415.75 454.75 778.35 248.1 778.35 41.45 778.35 41.45 415.75 41.45 53.15"/>
        <path class="cls_1" d="M454.9,778.5H41.3V53h413.6v725.5ZM41.6,778.2h413V53.3H41.6v724.9Z"/>
      </g>
    </g>
    <g id="DPuestosGen">
      <g id="Servicios">
        <g id="s_i01" data-name="s i01">
          <path class="cls_5" d="M236.55,622.25v14.9c0,.25-.08.45-.21.59s-.34.21-.59.21h-13.6c-.2,0-.4-.1-.55-.25s-.25-.35-.25-.55v-14.9c0-.25.08-.45.21-.59s.34-.21.59-.21h13.6c.2,0,.4.1.55.25s.25.35.25.55Z"/>
          <path class="cls_8" d="M235.75,622.45v14.5s0,.02-.01.05-.04.05-.09.05h-13.3s-.03,0-.05-.01-.05-.04-.05-.09v-14.5s0-.02.01-.05.04-.05.09-.05h13.3s.03,0,.05.01.05.04.05.09ZM235.55,636.85v-14.3h-13.1v14.3h13.1Z"/>
          <path class="cls_8" d="M233.15,629.75s0,.02-.01.05-.04.05-.09.05h-8s-.03,0-.05-.01-.05-.04-.05-.09,0-.07.01-.09.04-.01.09-.01h8s.03,0,.05.01.05.04.05.09Z"/>
          <path class="cls_8" d="M227.05,633.55c0-.25-.1-.48-.25-.64s-.35-.26-.55-.26-.4.1-.55.26-.25.39-.25.64.1.48.25.64.35.26.55.26.4-.1.55-.26.25-.39.25-.64ZM225.75,633.55c0-.2.08-.35.19-.45s.26-.15.41-.15.3.07.41.19.19.26.19.41-.08.3-.19.41-.26.19-.41.19-.3-.07-.41-.19-.19-.26-.19-.41Z"/>
          <path class="cls_8" d="M227.45,632.55v1.9s0,.1.02.14.07.06.17.06h2.6s.05,0,.1-.03.1-.08.1-.18v-.3h2.1s.03,0,.05-.01.05-.04.05-.09,0-.07-.01-.09-.04-.01-.09-.01h-2.1v-1h2.1s.03,0,.05-.01.05-.04.05-.09,0-.07-.01-.09-.04-.01-.09-.01h-2.1v-.3s0-.1-.02-.14-.07-.06-.17-.06h-2.6s-.05,0-.1.03-.1.08-.1.18v.1ZM230.15,632.65v1.8h-2.5v-1.8h2.5Z"/>
          <path class="cls_8" d="M227.15,626.15c0-.25-.1-.48-.25-.64s-.35-.26-.55-.26-.4.1-.55.26-.25.39-.25.64.1.48.25.64.35.26.55.26.4-.1.55-.26.25-.39.25-.64ZM225.75,626.15c0-.2.08-.35.19-.45s.26-.15.41-.15.3.07.41.19.19.26.19.41-.08.3-.19.41-.26.19-.41.19-.3-.07-.41-.19-.19-.26-.19-.41Z"/>
          <path class="cls_8" d="M230.25,623.95h0l-1.35,1.05-1.35,1.05h0l1.35,1.05,1.35,1.05h0c.15-.25.28-.52.38-.81s.18-.59.23-.89h1.5s.03,0,.05-.01.05-.04.05-.09,0-.07-.01-.09-.04-.01-.09-.01h-1.5v-.3h0v-.3h1.5s.03,0,.05-.01.05-.04.05-.09,0-.07-.01-.09-.04-.01-.09-.01h-1.5c0-.3-.08-.6-.19-.89s-.26-.56-.41-.81h0v.2ZM230.75,626.15h0c0,.35-.05.7-.15,1.04s-.25.66-.45.96l-1.25-1-1.25-1,1.25-1,1.25-1c.2.3.32.62.4.96s.1.69.1,1.04h.1Z"/>
        </g>
        <g id="s_i02" data-name="s i02">
          <path class="cls_5" d="M236.55,595.55v14.9c0,.25-.08.45-.21.59s-.34.21-.59.21h-13.6c-.2,0-.4-.1-.55-.25s-.25-.35-.25-.55v-14.9c0-.25.08-.45.21-.59s.34-.21.59-.21h13.6c.2,0,.4.1.55.25s.25.35.25.55Z"/>
          <path class="cls_8" d="M235.75,595.75v14.5s0,.02-.01.05-.04.05-.09.05h-13.3s-.03,0-.05-.01-.05-.04-.05-.09v-14.5s0-.02.01-.05.04-.05.09-.05h13.3s.03,0,.05.01.05.04.05.09ZM235.55,610.15v-14.3h-13.1v14.3h13.1Z"/>
          <path class="cls_8" d="M233.15,602.95s0,.02-.01.05-.04.05-.09.05h-8s-.03,0-.05-.01-.05-.04-.05-.09,0-.07.01-.09.04-.01.09-.01h8s.03,0,.05.01.05.04.05.09Z"/>
          <path class="cls_8" d="M227.05,606.75c0-.25-.1-.48-.25-.64s-.35-.26-.55-.26-.4.1-.55.26-.25.39-.25.64.1.48.25.64.35.26.55.26.4-.1.55-.26.25-.39.25-.64ZM225.75,606.75c0-.2.08-.35.19-.45s.26-.15.41-.15.3.07.41.19.19.26.19.41-.08.3-.19.41-.26.19-.41.19-.3-.07-.41-.19-.19-.26-.19-.41Z"/>
          <path class="cls_8" d="M227.35,605.85v1.9s0,.1.02.14.07.06.17.06h2.6s.05,0,.1-.03.1-.08.1-.18v-.3h2.1s.03,0,.05-.01.05-.04.05-.09,0-.07-.01-.09-.04-.01-.09-.01h-2.1v-1h2.1s.03,0,.05-.01.05-.04.05-.09,0-.07-.01-.09-.04-.01-.09-.01h-2.1v-.3s0-.1-.02-.14-.07-.06-.17-.06h-2.6s-.05,0-.1.03-.1.08-.1.18v.1ZM230.15,605.85v1.8h-2.5v-1.8h2.5Z"/>
          <path class="cls_8" d="M230.25,597.15h0l-1.35,1.05-1.35,1.05h0l1.35,1.05,1.35,1.05h0c.15-.25.28-.52.38-.81s.18-.59.23-.89h1.5s.03,0,.05-.01.05-.04.05-.09,0-.07-.01-.09-.04-.01-.09-.01h-1.5v-.3h0v-.3h1.5s.03,0,.05-.01.05-.04.05-.09,0-.07-.01-.09-.04-.01-.09-.01h-1.5c0-.3-.08-.6-.19-.89s-.26-.56-.41-.81h0v.2ZM230.75,599.45h0c0,.35-.05.7-.15,1.04s-.25.66-.45.96l-1.25-1-1.25-1,1.25-1,1.25-1c.2.3.32.62.4.96s.1.69.1,1.04h.1Z"/>
          <path class="cls_8" d="M227.15,599.35c0-.25-.1-.48-.25-.64s-.35-.26-.55-.26-.4.1-.55.26-.25.39-.25.64.1.48.25.64.35.26.55.26.4-.1.55-.26.25-.39.25-.64ZM225.75,599.35c0-.2.08-.35.19-.45s.26-.15.41-.15.3.07.41.19.19.26.19.41-.08.3-.19.41-.26.19-.41.19-.3-.07-.41-.19-.19-.26-.19-.41Z"/>
        </g>
        <g id="s_i03" data-name="s i03">
          <path class="cls_5" d="M259.65,610.85v-14.9c0-.25.07-.45.21-.59s.34-.21.59-.21h13.6c.2,0,.4.1.55.25s.25.35.25.55v14.9c0,.25-.07.45-.21.59s-.34.21-.59.21h-13.6c-.2,0-.4-.1-.55-.25s-.25-.35-.25-.55Z"/>
          <path class="cls_8" d="M260.45,610.65v-14.5s0-.02.01-.05.04-.05.09-.05h13.3s.03,0,.05.01.05.04.05.09v14.5s0,.02-.01.05-.04.05-.09.05h-13.3s-.03,0-.05-.01-.05-.04-.05-.09ZM260.65,596.25v14.3h13.1v-14.3h-13.1Z"/>
          <path class="cls_8" d="M263.15,603.35s0-.02.01-.05.04-.05.09-.05h8s.03,0,.05.01.05.04.05.09,0,.07-.01.09-.04.01-.09.01h-8s-.03,0-.05-.01-.05-.04-.05-.09Z"/>
          <path class="cls_8" d="M269.15,599.55c0,.25.1.48.25.64s.35.26.55.26.4-.1.55-.26.25-.39.25-.64-.1-.48-.25-.64-.35-.26-.55-.26-.4.1-.55.26-.25.39-.25.64ZM270.55,599.55c0,.2-.07.35-.19.45s-.26.15-.41.15-.3-.07-.41-.19-.19-.26-.19-.41.07-.3.19-.41.26-.19.41-.19.3.07.41.19.19.26.19.41Z"/>
          <path class="cls_8" d="M268.85,600.55v-1.9s0-.1-.03-.14-.08-.06-.18-.06h-2.6s-.05,0-.1.03-.1.08-.1.18v.3h-2.1s-.03,0-.05.01-.05.04-.05.09,0,.07.01.09.04.01.09.01h2.1v1h-2.1s-.03,0-.05.01-.05.04-.05.09,0,.07.01.09.04.01.09.01h2.1v.3s0,.1.03.14.08.06.18.06h2.6s.05,0,.1-.03.1-.08.1-.18v-.1ZM266.05,600.45v-1.8h2.5v1.8h-2.5Z"/>
          <path class="cls_8" d="M269.15,606.95c0,.25.1.48.25.64s.35.26.55.26.4-.1.55-.26.25-.39.25-.64-.1-.48-.25-.64-.35-.26-.55-.26-.4.1-.55.26-.25.39-.25.64ZM270.45,606.95c0,.2-.07.35-.19.45s-.26.15-.41.15-.3-.07-.41-.19-.19-.26-.19-.41.07-.3.19-.41.26-.19.41-.19.3.07.41.19.19.26.19.41Z"/>
          <path class="cls_8" d="M265.95,609.15h0l1.35-1.05,1.35-1.05h0l-1.35-1.05-1.35-1.05h0c-.15.25-.27.52-.37.81s-.18.59-.23.89h-1.5s-.03,0-.05.01-.05.04-.05.09,0,.07.01.09.04.01.09.01h1.5v.3h0v.3h-1.5s-.03,0-.05.01-.05.04-.05.09,0,.07.01.09.04.01.09.01h1.5c0,.3.07.6.19.89s.26.56.41.81h0v-.2ZM265.45,606.95h0c0-.35.05-.7.15-1.04s.25-.66.45-.96l1.25,1,1.25,1-1.25,1-1.25,1c-.2-.3-.32-.62-.4-.96s-.1-.69-.1-1.04h-.1Z"/>
        </g>
        <g id="s_i04" data-name="s i04">
          <path class="cls_5" d="M259.65,637.55v-14.9c0-.25.07-.45.21-.59s.34-.21.59-.21h13.6c.2,0,.4.1.55.25s.25.35.25.55v14.9c0,.25-.07.45-.21.59s-.34.21-.59.21h-13.6c-.2,0-.4-.1-.55-.25s-.25-.35-.25-.55Z"/>
          <path class="cls_8" d="M260.45,637.35v-14.5s0-.02.01-.05.04-.05.09-.05h13.3s.03,0,.05.01.05.04.05.09v14.5s0,.02-.01.05-.04.05-.09.05h-13.3s-.03,0-.05-.01-.05-.04-.05-.09ZM260.65,622.95v14.3h13.1v-14.3h-13.1Z"/>
          <path class="cls_8" d="M263.15,630.15s0-.02.01-.05.04-.05.09-.05h8s.03,0,.05.01.05.04.05.09,0,.07-.01.09-.04.01-.09.01h-8s-.03,0-.05-.01-.05-.04-.05-.09Z"/>
          <path class="cls_8" d="M269.15,626.35c0,.25.1.48.25.64s.35.26.55.26.4-.1.55-.26.25-.39.25-.64-.1-.48-.25-.64-.35-.26-.55-.26-.4.1-.55.26-.25.39-.25.64ZM270.55,626.35c0,.2-.07.35-.19.45s-.26.15-.41.15-.3-.07-.41-.19-.19-.26-.19-.41.07-.3.19-.41.26-.19.41-.19.3.07.41.19.19.26.19.41Z"/>
          <path class="cls_8" d="M268.85,627.25v-1.9s0-.1-.03-.14-.08-.06-.18-.06h-2.6s-.05,0-.1.03-.1.08-.1.18v.3h-2.1s-.03,0-.05.01-.05.04-.05.09,0,.07.01.09.04.01.09.01h2.1v1h-2.1s-.03,0-.05.01-.05.04-.05.09,0,.07.01.09.04.01.09.01h2.1v.3s0,.1.03.14.08.06.18.06h2.6s.05,0,.1-.03.1-.08.1-.18v-.1ZM266.15,627.25v-1.8h2.5v1.8h-2.5Z"/>
          <path class="cls_8" d="M269.15,633.75c0,.25.1.48.25.64s.35.26.55.26.4-.1.55-.26.25-.39.25-.64-.1-.48-.25-.64-.35-.26-.55-.26-.4.1-.55.26-.25.39-.25.64ZM270.55,633.75c0,.2-.07.35-.19.45s-.26.15-.41.15-.3-.07-.41-.19-.19-.26-.19-.41.07-.3.19-.41.26-.19.41-.19.3.07.41.19.19.26.19.41Z"/>
          <path class="cls_8" d="M266.05,635.95h0l1.35-1.05,1.35-1.05h0l-1.35-1.05-1.35-1.05h0c-.15.25-.27.52-.37.81s-.18.59-.23.89h-1.5s-.03,0-.05.01-.05.04-.05.09,0,.07.01.09.04.01.09.01h1.5v.3h0v.3h-1.5s-.03,0-.05.01-.05.04-.05.09,0,.07.01.09.04.01.09.01h1.5c0,.3.07.6.19.89s.26.56.41.81h0v-.2ZM265.55,633.65h0c0-.35.05-.7.15-1.04s.25-.66.45-.96l1.25,1,1.25,1-1.25,1-1.25,1c-.2-.3-.32-.62-.4-.96s-.1-.69-.1-1.04h-.1Z"/>
        </g>
        <g id="s_i05" data-name="s i05">
          <path class="cls_5" d="M236.55,214.35v14.9c0,.25-.08.45-.21.59s-.34.21-.59.21h-13.6c-.2,0-.4-.1-.55-.25s-.25-.35-.25-.55v-14.9c0-.25.08-.45.21-.59s.34-.21.59-.21h13.6c.2,0,.4.1.55.25s.25.35.25.55Z"/>
          <path class="cls_8" d="M235.75,214.55v14.5s0,.03-.01.05-.04.05-.09.05h-13.3s-.03,0-.05-.01-.05-.04-.05-.09v-14.5s0-.03.01-.05.04-.05.09-.05h13.3s.03,0,.05.01.05.04.05.09ZM235.55,229.05v-14.3h-13.1v14.3h13.1Z"/>
          <path class="cls_8" d="M233.15,221.85s0,.03-.01.05-.04.05-.09.05h-8s-.03,0-.05-.01-.05-.04-.05-.09,0-.08.01-.09.04-.01.09-.01h8s.03,0,.05.01.05.04.05.09Z"/>
          <path class="cls_8" d="M227.05,225.65c0-.25-.1-.47-.25-.64s-.35-.26-.55-.26-.4.1-.55.26-.25.39-.25.64.1.47.25.64.35.26.55.26.4-.1.55-.26.25-.39.25-.64ZM225.75,225.65c0-.2.08-.35.19-.45s.26-.15.41-.15.3.08.41.19.19.26.19.41-.08.3-.19.41-.26.19-.41.19-.3-.08-.41-.19-.19-.26-.19-.41Z"/>
          <path class="cls_8" d="M227.45,224.75v1.9c0,.05,0,.1.02.14s.07.06.17.06h2.6s.05,0,.1-.02.1-.07.1-.17v-.3h2.1s.03,0,.05-.01.05-.04.05-.09,0-.08-.01-.09-.04-.01-.09-.01h-2.1v-1h2.1s.03,0,.05-.01.05-.04.05-.09,0-.08-.01-.09-.04-.01-.09-.01h-2.1v-.3c0-.05,0-.1-.02-.14s-.07-.06-.17-.06h-2.6s-.05,0-.1.02-.1.07-.1.17v.1ZM230.15,224.75v1.8h-2.5v-1.8h2.5Z"/>
          <path class="cls_8" d="M227.15,218.25c0-.25-.1-.47-.25-.64s-.35-.26-.55-.26-.4.1-.55.26-.25.39-.25.64.1.47.25.64.35.26.55.26.4-.1.55-.26.25-.39.25-.64ZM225.75,218.25c0-.2.08-.35.19-.45s.26-.15.41-.15.3.08.41.19.19.26.19.41-.08.3-.19.41-.26.19-.41.19-.3-.08-.41-.19-.19-.26-.19-.41Z"/>
          <path class="cls_8" d="M230.25,216.05h0l-1.35,1.05-1.35,1.05h0l1.35,1.05,1.35,1.05h0c.15-.25.28-.53.38-.81s.18-.59.23-.89h1.5s.03,0,.05-.01.05-.04.05-.09,0-.08-.01-.09-.04-.01-.09-.01h-1.5v-.3h0v-.3h1.5s.03,0,.05-.01.05-.04.05-.09,0-.08-.01-.09-.04-.01-.09-.01h-1.5c0-.3-.08-.6-.19-.89s-.26-.56-.41-.81h0v.2ZM230.75,218.25h0c0,.35-.05.7-.15,1.04s-.25.66-.45.96l-1.25-1-1.25-1,1.25-1,1.25-1c.2.3.32.63.4.96s.1.69.1,1.04h.1Z"/>
        </g>
        <g id="s_i06" data-name="s i06">
          <path class="cls_5" d="M236.55,187.65v14.9c0,.25-.08.45-.21.59s-.34.21-.59.21h-13.6c-.2,0-.4-.1-.55-.25s-.25-.35-.25-.55v-14.9c0-.25.08-.45.21-.59s.34-.21.59-.21h13.6c.2,0,.4.1.55.25s.25.35.25.55Z"/>
          <path class="cls_8" d="M235.75,187.85v14.5s0,.03-.01.05-.04.05-.09.05h-13.3s-.03,0-.05-.01-.05-.04-.05-.09v-14.5s0-.03.01-.05.04-.05.09-.05h13.3s.03,0,.05.01.05.04.05.09ZM235.55,202.25v-14.3h-13.1v14.3h13.1Z"/>
          <path class="cls_8" d="M233.15,195.15s0,.03-.01.05-.04.05-.09.05h-8s-.03,0-.05-.01-.05-.04-.05-.09,0-.08.01-.09.04-.01.09-.01h8s.03,0,.05.01.05.04.05.09Z"/>
          <path class="cls_8" d="M227.05,198.95c0-.25-.1-.47-.25-.64s-.35-.26-.55-.26-.4.1-.55.26-.25.39-.25.64.1.47.25.64.35.26.55.26.4-.1.55-.26.25-.39.25-.64ZM225.75,198.95c0-.2.08-.35.19-.45s.26-.15.41-.15.3.08.41.19.19.26.19.41-.08.3-.19.41-.26.19-.41.19-.3-.08-.41-.19-.19-.26-.19-.41Z"/>
          <path class="cls_8" d="M227.35,197.95v1.9c0,.05,0,.1.02.14s.07.06.17.06h2.6s.05,0,.1-.02.1-.07.1-.17v-.3h2.1s.03,0,.05-.01.05-.04.05-.09,0-.08-.01-.09-.04-.01-.09-.01h-2.1v-1h2.1s.03,0,.05-.01.05-.04.05-.09,0-.08-.01-.09-.04-.01-.09-.01h-2.1v-.3c0-.05,0-.1-.02-.14s-.07-.06-.17-.06h-2.6s-.05,0-.1.02-.1.07-.1.17v.1ZM230.15,198.05v1.8h-2.5v-1.8h2.5Z"/>
          <path class="cls_8" d="M227.15,191.55c0-.25-.1-.47-.25-.64s-.35-.26-.55-.26-.4.1-.55.26-.25.39-.25.64.1.47.25.64.35.26.55.26.4-.1.55-.26.25-.39.25-.64ZM225.75,191.55c0-.2.08-.35.19-.45s.26-.15.41-.15.3.08.41.19.19.26.19.41-.08.3-.19.41-.26.19-.41.19-.3-.08-.41-.19-.19-.26-.19-.41Z"/>
          <path class="cls_8" d="M230.25,189.35h0l-1.35,1.05-1.35,1.05h0l1.35,1.05,1.35,1.05h0c.15-.25.28-.53.38-.81s.18-.59.23-.89h1.5s.03,0,.05-.01.05-.04.05-.09,0-.08-.01-.09-.04-.01-.09-.01h-1.5v-.3h0v-.3h1.5s.03,0,.05-.01.05-.04.05-.09,0-.08-.01-.09-.04-.01-.09-.01h-1.5c0-.3-.08-.6-.19-.89s-.26-.56-.41-.81h0v.2ZM230.75,191.55h0c0,.35-.05.7-.15,1.04s-.25.66-.45.96l-1.25-1-1.25-1,1.25-1,1.25-1c.2.3.32.63.4.96s.1.69.1,1.04h.1Z"/>
        </g>
        <g id="s_i07" data-name="s i07">
          <path class="cls_5" d="M259.65,202.95v-14.9c0-.25.07-.45.21-.59s.34-.21.59-.21h13.6c.2,0,.4.1.55.25s.25.35.25.55v14.9c0,.25-.07.45-.21.59s-.34.21-.59.21h-13.6c-.2,0-.4-.1-.55-.25s-.25-.35-.25-.55Z"/>
          <path class="cls_8" d="M260.45,202.75v-14.5s0-.03.01-.05.04-.05.09-.05h13.3s.03,0,.05.01.05.04.05.09v14.5s0,.03-.01.05-.04.05-.09.05h-13.3s-.03,0-.05-.01-.05-.04-.05-.09ZM260.65,188.35v14.3h13.1v-14.3h-13.1Z"/>
          <path class="cls_8" d="M263.15,195.55s0-.03.01-.05.04-.05.09-.05h8s.03,0,.05.01.05.04.05.09,0,.08-.01.09-.04.01-.09.01h-8s-.03,0-.05-.01-.05-.04-.05-.09Z"/>
          <path class="cls_8" d="M269.15,191.75c0,.25.1.47.25.64s.35.26.55.26.4-.1.55-.26.25-.39.25-.64-.1-.47-.25-.64-.35-.26-.55-.26-.4.1-.55.26-.25.39-.25.64ZM270.55,191.75c0,.2-.07.35-.19.45s-.26.15-.41.15-.3-.08-.41-.19-.19-.26-.19-.41.07-.3.19-.41.26-.19.41-.19.3.08.41.19.19.26.19.41Z"/>
          <path class="cls_8" d="M268.85,192.65v-1.9c0-.05,0-.1-.03-.14s-.08-.06-.18-.06h-2.6s-.05,0-.1.02-.1.07-.1.17v.3h-2.1s-.03,0-.05.01-.05.04-.05.09,0,.08.01.09.04.01.09.01h2.1v1h-2.1s-.03,0-.05.01-.05.04-.05.09,0,.08.01.09.04.01.09.01h2.1v.3c0,.05,0,.1.03.14s.08.06.18.06h2.6s.05,0,.1-.02.1-.07.1-.17v-.1ZM266.05,192.65v-1.8h2.5v1.8h-2.5Z"/>
          <path class="cls_8" d="M269.15,199.15c0,.25.1.47.25.64s.35.26.55.26.4-.1.55-.26.25-.39.25-.64-.1-.47-.25-.64-.35-.26-.55-.26-.4.1-.55.26-.25.39-.25.64ZM270.45,199.15c0,.2-.07.35-.19.45s-.26.15-.41.15-.3-.08-.41-.19-.19-.26-.19-.41.07-.3.19-.41.26-.19.41-.19.3.08.41.19.19.26.19.41Z"/>
          <path class="cls_8" d="M265.95,201.35h0l1.35-1.05,1.35-1.05h0l-1.35-1.05-1.35-1.05h0c-.15.25-.27.53-.37.81s-.18.59-.23.89h-1.5s-.03,0-.05.01-.05.04-.05.09,0,.08.01.09.04.01.09.01h1.5v.3h0v.3h-1.5s-.03,0-.05.01-.05.04-.05.09,0,.08.01.09.04.01.09.01h1.5c0,.3.07.6.19.89s.26.56.41.81h0v-.2ZM265.45,199.05h0c0-.35.05-.7.15-1.04s.25-.66.45-.96l1.25,1,1.25,1-1.25,1-1.25,1c-.2-.3-.32-.63-.4-.96s-.1-.69-.1-1.04h-.1Z"/>
        </g>
        <g id="s_i08" data-name="s i08">
          <path class="cls_5" d="M259.65,229.75v-14.9c0-.25.07-.45.21-.59s.34-.21.59-.21h13.6c.2,0,.4.1.55.25s.25.35.25.55v14.9c0,.25-.07.45-.21.59s-.34.21-.59.21h-13.6c-.2,0-.4-.1-.55-.25s-.25-.35-.25-.55Z"/>
          <path class="cls_8" d="M260.45,229.55v-14.5s0-.03.01-.05.04-.05.09-.05h13.3s.03,0,.05.01.05.04.05.09v14.5s0,.03-.01.05-.04.05-.09.05h-13.3s-.03,0-.05-.01-.05-.04-.05-.09ZM260.65,215.15v14.3h13.1v-14.3h-13.1Z"/>
          <path class="cls_8" d="M263.15,222.25s0-.03.01-.05.04-.05.09-.05h8s.03,0,.05.01.05.04.05.09,0,.08-.01.09-.04.01-.09.01h-8s-.03,0-.05-.01-.05-.04-.05-.09Z"/>
          <path class="cls_8" d="M269.15,218.45c0,.25.1.47.25.64s.35.26.55.26.4-.1.55-.26.25-.39.25-.64-.1-.47-.25-.64-.35-.26-.55-.26-.4.1-.55.26-.25.39-.25.64ZM270.55,218.45c0,.2-.07.35-.19.45s-.26.15-.41.15-.3-.08-.41-.19-.19-.26-.19-.41.07-.3.19-.41.26-.19.41-.19.3.08.41.19.19.26.19.41Z"/>
          <path class="cls_8" d="M268.85,219.45v-1.9c0-.05,0-.1-.03-.14s-.08-.06-.18-.06h-2.6s-.05,0-.1.02-.1.07-.1.17v.3h-2.1s-.03,0-.05.01-.05.04-.05.09,0,.08.01.09.04.01.09.01h2.1v1h-2.1s-.03,0-.05.01-.05.04-.05.09,0,.08.01.09.04.01.09.01h2.1v.3c0,.05,0,.1.03.14s.08.06.18.06h2.6s.05,0,.1-.02.1-.07.1-.17v-.1ZM266.15,219.35v-1.8h2.5v1.8h-2.5Z"/>
          <path class="cls_8" d="M269.15,225.85c0,.25.1.47.25.64s.35.26.55.26.4-.1.55-.26.25-.39.25-.64-.1-.47-.25-.64-.35-.26-.55-.26-.4.1-.55.26-.25.39-.25.64ZM270.55,225.85c0,.2-.07.35-.19.45s-.26.15-.41.15-.3-.08-.41-.19-.19-.26-.19-.41.07-.3.19-.41.26-.19.41-.19.3.08.41.19.19.26.19.41Z"/>
          <path class="cls_8" d="M266.05,228.05h0l1.35-1.05,1.35-1.05h0l-1.35-1.05-1.35-1.05h0c-.15.25-.27.53-.37.81s-.18.59-.23.89h-1.5s-.03,0-.05.01-.05.04-.05.09,0,.08.01.09.04.01.09.01h1.5v.3h0v.3h-1.5s-.03,0-.05.01-.05.04-.05.09,0,.08.01.09.04.01.09.01h1.5c0,.3.07.6.19.89s.26.56.41.81h0v-.2ZM265.55,225.85h0c0-.35.05-.7.15-1.04s.25-.66.45-.96l1.25,1,1.25,1-1.25,1-1.25,1c-.2-.3-.32-.63-.4-.96s-.1-.69-.1-1.04h-.1Z"/>
        </g>
      </g>
      <g id="SalidasEmergencia">
        <g id="se_Exterior" data-name="se Exterior">
          <g id="dse_E01" data-name="dse E01">
            <path class="cls_3" d="M76.15,794.95h-21.2c-.07,0-.15-.02-.22-.05s-.14-.08-.19-.15-.1-.14-.14-.22-.05-.18-.05-.28v-14.6c0-.1.02-.19.05-.28s.08-.16.14-.22.12-.11.19-.15.15-.05.22-.05h21.2c.08,0,.15.02.22.05s.14.08.19.15.1.14.14.22.05.18.05.28v14.6c0,.1-.02.19-.05.28s-.08.16-.14.22-.12.11-.19.15-.15.05-.22.05Z"/>
            <path class="cls_8" d="M75.45,795.35h-20c-.22,0-.43-.05-.62-.13s-.36-.21-.51-.36-.26-.34-.34-.54-.13-.43-.13-.66v-13.3c0-.23.04-.46.13-.66s.2-.39.34-.54.32-.28.51-.36.4-.13.62-.13h20c.22,0,.43.05.62.13s.36.21.51.36.26.34.34.54.13.43.13.66v13.3c0,.23-.04.46-.13.66s-.2.39-.34.54-.32.28-.51.36-.4.13-.62.13ZM55.85,793.35h19.2v-12.7h-19.2v12.7Z"/>
            <polygon class="cls_8" points="68.35 781.85 69.95 781.85 71.55 781.85 73.15 781.85 74.75 781.85 74.75 784.6 74.75 787.35 74.75 790.1 74.75 792.85 73.15 792.85 71.55 792.85 69.95 792.85 68.35 792.85 68.35 790.1 68.35 787.35 68.35 784.6 68.35 781.85"/>
            <polygon class="cls_8" points="62.85 787.15 62 786.12 61.15 785.1 60.3 784.07 59.45 783.05 58.8 783.05 58.15 783.05 57.5 783.05 56.85 783.05 57.4 783.67 57.95 784.3 58.5 784.92 59.05 785.55 58.25 785.55 57.45 785.55 56.65 785.55 55.85 785.55 55.85 786.35 55.85 787.15 55.85 787.95 55.85 788.75 56.65 788.75 57.45 788.75 58.25 788.75 59.05 788.75 58.5 789.4 57.95 790.05 57.4 790.7 56.85 791.35 57.5 791.35 58.15 791.35 58.8 791.35 59.45 791.35 60.3 790.3 61.15 789.25 62 788.2 62.85 787.15"/>
            <polygon class="cls_3" points="74.35 782.25 74.1 782.25 73.85 782.25 73.6 782.25 73.35 782.25 73.1 782.25 72.85 782.25 72.6 782.25 72.35 782.25 72.35 783.24 72.35 784.22 72.35 785.21 72.35 786.2 72.35 787.19 72.35 788.17 72.35 789.16 72.35 790.15 72.6 790.45 72.85 790.75 73.1 791.05 73.35 791.35 73.6 791.65 73.85 791.95 74.1 792.25 74.35 792.55 74.35 791.26 74.35 789.97 74.35 788.69 74.35 787.4 74.35 786.11 74.35 784.82 74.35 783.54 74.35 782.25"/>
            <polygon class="cls_3" points="68.65 782.25 68.9 782.25 69.15 782.25 69.4 782.25 69.65 782.25 69.9 782.25 70.15 782.25 70.4 782.25 70.65 782.25 70.65 783.24 70.65 784.22 70.65 785.21 70.65 786.2 70.65 787.19 70.65 788.17 70.65 789.16 70.65 790.15 70.4 790.45 70.15 790.75 69.9 791.05 69.65 791.35 69.4 791.65 69.15 791.95 68.9 792.25 68.65 792.55 68.65 791.26 68.65 789.97 68.65 788.69 68.65 787.4 68.65 786.11 68.65 784.82 68.65 783.54 68.65 782.25"/>
          </g>
          <g id="dse_E02" data-name="dse E02">
            <path class="cls_3" d="M217.35,795.15h-21.2c-.15,0-.3-.07-.41-.2s-.19-.3-.19-.5v-14.6c0-.2.08-.38.19-.5s.26-.2.41-.2h21.2c.15,0,.3.07.41.2s.19.3.19.5v14.6c0,.2-.08.38-.19.5s-.26.2-.41.2Z"/>
            <path class="cls_8" d="M216.65,795.55h-20c-.44,0-.84-.19-1.13-.5s-.47-.73-.47-1.2v-13.3c0-.47.18-.89.47-1.2s.69-.5,1.13-.5h20c.44,0,.84.19,1.13.5s.47.73.47,1.2v13.3c0,.47-.18.89-.47,1.2s-.69.5-1.13.5ZM197.05,793.55h19.2v-12.7h-19.2v12.7Z"/>
            <polygon class="cls_8" points="209.55 782.05 212.75 782.05 215.95 782.05 215.95 787.55 215.95 793.05 212.75 793.05 209.55 793.05 209.55 787.55 209.55 782.05"/>
            <polygon class="cls_8" points="200.55 791.55 202.3 789.45 204.05 787.35 202.3 785.3 200.55 783.25 199.3 783.25 198.05 783.25 199.1 784.5 200.15 785.75 198.6 785.75 197.05 785.75 197.05 787.35 197.05 788.95 198.6 788.95 200.15 788.95 199.1 790.25 198.05 791.55 199.3 791.55 200.55 791.55"/>
            <polygon class="cls_3" points="215.55 782.45 214.55 782.45 213.55 782.45 213.55 786.4 213.55 790.35 214.55 791.55 215.55 792.75 215.55 787.6 215.55 782.45"/>
            <polygon class="cls_3" points="209.85 782.45 210.85 782.45 211.85 782.45 211.85 786.4 211.85 790.35 210.85 791.55 209.85 792.75 209.85 787.6 209.85 782.45"/>
          </g>
          <g id="dse_E03" data-name="dse E03">
            <path class="cls_3" d="M300.85,795.15h-21.2c-.15,0-.3-.07-.41-.2s-.19-.3-.19-.5v-14.6c0-.2.07-.38.19-.5s.26-.2.41-.2h21.2c.15,0,.3.07.41.2s.19.3.19.5v14.6c0,.2-.07.38-.19.5s-.26.2-.41.2Z"/>
            <path class="cls_8" d="M300.15,795.55h-20c-.44,0-.84-.19-1.13-.5s-.47-.73-.47-1.2v-13.3c0-.47.18-.89.47-1.2s.69-.5,1.13-.5h20c.44,0,.84.19,1.13.5s.47.73.47,1.2v13.3c0,.47-.18.89-.47,1.2s-.69.5-1.13.5ZM280.55,793.55h19.2v-12.7h-19.2v12.7Z"/>
            <polygon class="cls_8" points="292.95 782.05 296.15 782.05 299.35 782.05 299.35 787.55 299.35 793.05 296.15 793.05 292.95 793.05 292.95 787.55 292.95 782.05"/>
            <polygon class="cls_8" points="284.05 791.55 285.8 789.45 287.55 787.35 285.8 785.3 284.05 783.25 282.8 783.25 281.55 783.25 282.6 784.5 283.65 785.75 282.1 785.75 280.55 785.75 280.55 787.35 280.55 788.95 282.1 788.95 283.65 788.95 282.6 790.25 281.55 791.55 282.8 791.55 284.05 791.55"/>
            <polygon class="cls_3" points="299.05 782.45 298.05 782.45 297.05 782.45 297.05 786.4 297.05 790.35 298.05 791.5 299.05 792.65 299.05 787.55 299.05 782.45"/>
            <polygon class="cls_3" points="293.35 782.45 294.35 782.45 295.35 782.45 295.35 786.4 295.35 790.35 294.35 791.5 293.35 792.65 293.35 787.55 293.35 782.45"/>
          </g>
          <g id="dse_E04" data-name="dse E04">
            <path class="cls_3" d="M442.85,795.15h-21.2c-.15,0-.3-.07-.41-.2s-.19-.3-.19-.5v-14.6c0-.2.07-.38.19-.5s.26-.2.41-.2h21.2c.15,0,.3.07.41.2s.19.3.19.5v14.6c0,.2-.07.38-.19.5s-.26.2-.41.2Z"/>
            <path class="cls_8" d="M442.15,795.55h-20c-.44,0-.84-.19-1.13-.5s-.47-.73-.47-1.2v-13.3c0-.47.18-.89.47-1.2s.69-.5,1.13-.5h20c.44,0,.84.19,1.13.5s.47.73.47,1.2v13.3c0,.47-.18.89-.47,1.2s-.69.5-1.13.5ZM422.55,793.55h19.2v-12.7h-19.2v12.7Z"/>
            <polygon class="cls_8" points="435.05 782.05 438.25 782.05 441.45 782.05 441.45 787.55 441.45 793.05 438.25 793.05 435.05 793.05 435.05 787.55 435.05 782.05"/>
            <polygon class="cls_8" points="426.15 783.25 424.85 783.25 423.55 783.25 424.65 784.5 425.75 785.75 424.15 785.75 422.55 785.75 422.55 787.35 422.55 788.95 424.15 788.95 425.75 788.95 424.65 790.25 423.55 791.55 424.85 791.55 426.15 791.55 427.85 789.45 429.55 787.35 427.85 785.3 426.15 783.25"/>
            <polygon class="cls_3" points="441.05 792.75 441.05 787.6 441.05 782.45 440.05 782.45 439.05 782.45 439.05 786.4 439.05 790.35 440.05 791.55 441.05 792.75"/>
            <polygon class="cls_3" points="435.35 792.75 435.35 787.6 435.35 782.45 436.35 782.45 437.35 782.45 437.35 786.4 437.35 790.35 436.35 791.55 435.35 792.75"/>
          </g>
          <g id="dse_E05" data-name="dse E05">
            <path class="cls_3" d="M75.85,52.25h-21.2c-.15,0-.3-.07-.41-.2s-.19-.3-.19-.5v-14.6c0-.2.07-.38.19-.5s.26-.2.41-.2h21.2c.15,0,.3.07.41.2s.19.3.19.5v14.6c0,.2-.08.38-.19.5s-.26.2-.41.2Z"/>
            <path class="cls_8" d="M75.25,52.65h-20c-.44,0-.84-.19-1.13-.5s-.47-.73-.47-1.2v-13.3c0-.47.18-.89.47-1.2s.69-.5,1.13-.5h20c.44,0,.84.19,1.13.5s.47.73.47,1.2v13.3c0,.47-.18.89-.47,1.2s-.69.5-1.13.5ZM55.65,50.65h19.2v-12.7h-19.2v12.7Z"/>
            <polygon class="cls_8" points="68.05 39.15 71.25 39.15 74.45 39.15 74.45 44.65 74.45 50.15 71.25 50.15 68.05 50.15 68.05 44.65 68.05 39.15"/>
            <polygon class="cls_8" points="56.65 40.35 57.7 41.6 58.75 42.85 57.15 42.85 55.55 42.85 55.55 44.45 55.55 46.05 57.15 46.05 58.75 46.05 57.7 47.35 56.65 48.65 57.9 48.65 59.15 48.65 60.85 46.55 62.55 44.45 60.85 42.4 59.15 40.35 57.9 40.35 56.65 40.35"/>
            <polygon class="cls_3" points="74.05 49.75 74.05 44.65 74.05 39.55 73.1 39.55 72.15 39.55 72.15 43.5 72.15 47.45 73.1 48.6 74.05 49.75"/>
            <polygon class="cls_3" points="68.45 49.75 68.45 44.65 68.45 39.55 69.4 39.55 70.35 39.55 70.35 43.5 70.35 47.45 69.4 48.6 68.45 49.75"/>
          </g>
          <g id="dse_E06" data-name="dse E06">
            <path class="cls_3" d="M217.05,52.45h-21.2c-.15,0-.3-.07-.41-.2s-.19-.3-.19-.5v-14.6c0-.2.08-.38.19-.5s.26-.2.41-.2h21.2c.15,0,.3.07.41.2s.19.3.19.5v14.6c0,.2-.08.38-.19.5s-.26.2-.41.2Z"/>
            <path class="cls_8" d="M216.45,52.75h-20c-.44,0-.84-.19-1.13-.5s-.47-.73-.47-1.2v-13.3c0-.47.18-.89.47-1.2s.69-.5,1.13-.5h20c.44,0,.84.19,1.13.5s.47.73.47,1.2v13.3c0,.47-.18.89-.47,1.2s-.69.5-1.13.5ZM196.85,50.75h19.2v-12.7h-19.2v12.7Z"/>
            <polygon class="cls_8" points="209.25 39.35 212.45 39.35 215.65 39.35 215.65 44.85 215.65 50.35 212.45 50.35 209.25 50.35 209.25 44.85 209.25 39.35"/>
            <polygon class="cls_8" points="197.85 40.45 198.9 41.75 199.95 43.05 198.35 43.05 196.75 43.05 196.75 44.65 196.75 46.25 198.35 46.25 199.95 46.25 198.9 47.55 197.85 48.85 199.1 48.85 200.35 48.85 202.05 46.75 203.75 44.65 202.05 42.55 200.35 40.45 199.1 40.45 197.85 40.45"/>
            <polygon class="cls_3" points="215.25 39.75 214.25 39.75 213.25 39.75 213.25 43.7 213.25 47.65 214.25 48.8 215.25 49.95 215.25 44.85 215.25 39.75"/>
            <polygon class="cls_3" points="209.55 39.75 210.55 39.75 211.55 39.75 211.55 43.7 211.55 47.65 210.55 48.8 209.55 49.95 209.55 44.85 209.55 39.75"/>
          </g>
          <g id="dse_E07" data-name="dse E07">
            <path class="cls_3" d="M300.55,52.45h-21.2c-.15,0-.3-.07-.41-.2s-.19-.3-.19-.5v-14.6c0-.2.07-.38.19-.5s.26-.2.41-.2h21.2c.15,0,.3.07.41.2s.19.3.19.5v14.6c0,.2-.07.38-.19.5s-.26.2-.41.2Z"/>
            <path class="cls_8" d="M299.85,52.75h-20c-.44,0-.84-.19-1.13-.5s-.47-.73-.47-1.2v-13.3c0-.47.18-.89.47-1.2s.69-.5,1.13-.5h20c.44,0,.84.19,1.13.5s.47.73.47,1.2v13.3c0,.47-.18.89-.47,1.2s-.69.5-1.13.5ZM280.25,50.75h19.2v-12.7h-19.2v12.7Z"/>
            <polygon class="cls_8" points="292.75 39.35 295.95 39.35 299.15 39.35 299.15 44.85 299.15 50.35 295.95 50.35 292.75 50.35 292.75 44.85 292.75 39.35"/>
            <polygon class="cls_8" points="281.25 40.45 282.35 41.75 283.45 43.05 281.85 43.05 280.25 43.05 280.25 44.65 280.25 46.25 281.85 46.25 283.45 46.25 282.35 47.5 281.25 48.75 282.55 48.75 283.85 48.75 285.55 46.7 287.25 44.65 285.55 42.55 283.85 40.45 282.55 40.45 281.25 40.45"/>
            <polygon class="cls_3" points="298.75 39.75 297.75 39.75 296.75 39.75 296.75 43.65 296.75 47.55 297.75 48.75 298.75 49.95 298.75 44.85 298.75 39.75"/>
            <polygon class="cls_3" points="293.05 39.75 294.05 39.75 295.05 39.75 295.05 43.65 295.05 47.55 294.05 48.75 293.05 49.95 293.05 44.85 293.05 39.75"/>
          </g>
          <g id="dse_E08" data-name="dse E08">
            <path class="cls_3" d="M442.55,52.45h-21.2c-.15,0-.3-.07-.41-.2s-.19-.3-.19-.5v-14.6c0-.2.07-.38.19-.5s.26-.2.41-.2h21.2c.15,0,.3.07.41.2s.19.3.19.5v14.6c0,.2-.07.38-.19.5s-.26.2-.41.2Z"/>
            <path class="cls_8" d="M441.95,52.75h-20c-.44,0-.84-.19-1.13-.5s-.47-.73-.47-1.2v-13.3c0-.47.18-.89.47-1.2s.69-.5,1.13-.5h20c.44,0,.84.19,1.13.5s.47.73.47,1.2v13.3c0,.47-.18.89-.47,1.2s-.69.5-1.13.5ZM422.35,50.75h19.2v-12.7h-19.2v12.7Z"/>
            <polygon class="cls_8" points="434.75 39.35 437.95 39.35 441.15 39.35 441.15 44.85 441.15 50.35 437.95 50.35 434.75 50.35 434.75 44.85 434.75 39.35"/>
            <polygon class="cls_8" points="422.25 43.05 422.25 44.65 422.25 46.25 423.85 46.25 425.45 46.25 424.4 47.55 423.35 48.85 424.6 48.85 425.85 48.85 427.6 46.75 429.35 44.65 427.6 42.55 425.85 40.45 424.6 40.45 423.35 40.45 424.4 41.75 425.45 43.05 423.85 43.05 422.25 43.05"/>
            <polygon class="cls_3" points="440.85 49.95 440.85 44.85 440.85 39.75 439.85 39.75 438.85 39.75 438.85 43.65 438.85 47.55 439.85 48.75 440.85 49.95"/>
            <polygon class="cls_3" points="435.15 49.95 435.15 44.85 435.15 39.75 436.1 39.75 437.05 39.75 437.05 43.65 437.05 47.55 436.1 48.75 435.15 49.95"/>
          </g>
          <g id="dse_E09" data-name="dse E09">
            <path class="cls_3" d="M477.35,705.95h-21.2c-.15,0-.3-.07-.41-.2s-.19-.3-.19-.5v-14.6c0-.2.07-.38.19-.5s.26-.2.41-.2h21.2c.15,0,.3.07.41.2s.19.3.19.5v14.6c0,.2-.07.38-.19.5s-.26.2-.41.2Z"/>
            <path class="cls_8" d="M476.75,706.35h-20c-.44,0-.84-.19-1.13-.5s-.47-.73-.47-1.2v-13.3c0-.47.18-.89.47-1.2s.69-.5,1.13-.5h20c.44,0,.84.19,1.13.5s.47.73.47,1.2v13.3c0,.47-.18.89-.47,1.2s-.69.5-1.13.5ZM457.15,704.35h19.2v-12.7h-19.2v12.7Z"/>
            <polygon class="cls_8" points="469.55 692.85 472.75 692.85 475.95 692.85 475.95 698.35 475.95 703.85 472.75 703.85 469.55 703.85 469.55 698.35 469.55 692.85"/>
            <polygon class="cls_8" points="460.25 696.55 458.65 696.55 457.05 696.55 457.05 698.15 457.05 699.75 458.65 699.75 460.25 699.75 459.15 701.05 458.05 702.35 459.35 702.35 460.65 702.35 462.35 700.25 464.05 698.15 462.35 696.1 460.65 694.05 459.35 694.05 458.05 694.05 459.15 695.3 460.25 696.55"/>
            <polygon class="cls_3" points="475.55 703.55 475.55 698.4 475.55 693.25 474.55 693.25 473.55 693.25 473.55 697.2 473.55 701.15 474.55 702.35 475.55 703.55"/>
            <polygon class="cls_3" points="469.85 703.55 469.85 698.4 469.85 693.25 470.85 693.25 471.85 693.25 471.85 697.2 471.85 701.15 470.85 702.35 469.85 703.55"/>
          </g>
          <g id="dse_E10" data-name="dse E10">
            <path class="cls_3" d="M477.35,565.05h-21.2c-.15,0-.3-.07-.41-.2s-.19-.3-.19-.5v-14.6c0-.2.07-.38.19-.5s.26-.2.41-.2h21.2c.15,0,.3.07.41.2s.19.3.19.5v14.6c0,.2-.07.38-.19.5s-.26.2-.41.2Z"/>
            <path class="cls_8" d="M476.75,565.35h-20c-.44,0-.84-.19-1.13-.5s-.47-.73-.47-1.2v-13.3c0-.47.18-.89.47-1.2s.69-.5,1.13-.5h20c.44,0,.84.19,1.13.5s.47.73.47,1.2v13.3c0,.47-.18.89-.47,1.2s-.69.5-1.13.5ZM457.15,563.35h19.2v-12.7h-19.2v12.7Z"/>
            <polygon class="cls_8" points="469.55 551.95 472.75 551.95 475.95 551.95 475.95 557.45 475.95 562.95 472.75 562.95 469.55 562.95 469.55 557.45 469.55 551.95"/>
            <polygon class="cls_8" points="460.25 555.65 458.65 555.65 457.05 555.65 457.05 557.25 457.05 558.85 458.65 558.85 460.25 558.85 459.2 560.1 458.15 561.35 459.4 561.35 460.65 561.35 462.35 559.3 464.05 557.25 462.35 555.15 460.65 553.05 459.4 553.05 458.15 553.05 459.2 554.35 460.25 555.65"/>
            <polygon class="cls_3" points="475.55 562.55 475.55 557.45 475.55 552.35 474.6 552.35 473.65 552.35 473.65 556.25 473.65 560.15 474.6 561.35 475.55 562.55"/>
            <polygon class="cls_3" points="469.95 562.55 469.95 557.45 469.95 552.35 470.9 552.35 471.85 552.35 471.85 556.25 471.85 560.15 470.9 561.35 469.95 562.55"/>
          </g>
          <g id="dse_E11" data-name="dse E11">
            <path class="cls_3" d="M477.55,310.55h-21.2c-.15,0-.3-.07-.41-.2s-.19-.3-.19-.5v-14.6c0-.2.07-.38.19-.5s.26-.2.41-.2h21.2c.15,0,.3.07.41.2s.19.3.19.5v14.6c0,.2-.07.38-.19.5s-.26.2-.41.2Z"/>
            <path class="cls_8" d="M476.95,310.85h-20c-.44,0-.84-.19-1.13-.5s-.47-.73-.47-1.2v-13.3c0-.47.18-.89.47-1.2s.69-.5,1.13-.5h20c.44,0,.84.19,1.13.5s.47.73.47,1.2v13.3c0,.47-.18.89-.47,1.2s-.69.5-1.13.5ZM457.35,308.85h19.2v-12.7h-19.2v12.7Z"/>
            <polygon class="cls_8" points="469.75 297.45 472.95 297.45 476.15 297.45 476.15 302.95 476.15 308.45 472.95 308.45 469.75 308.45 469.75 302.95 469.75 297.45"/>
            <polygon class="cls_8" points="458.35 298.55 459.4 299.85 460.45 301.15 458.85 301.15 457.25 301.15 457.25 302.75 457.25 304.35 458.85 304.35 460.45 304.35 459.4 305.65 458.35 306.95 459.6 306.95 460.85 306.95 462.55 304.85 464.25 302.75 462.55 300.65 460.85 298.55 459.6 298.55 458.35 298.55"/>
            <polygon class="cls_3" points="475.85 308.05 475.85 302.95 475.85 297.85 474.85 297.85 473.85 297.85 473.85 301.8 473.85 305.75 474.85 306.9 475.85 308.05"/>
            <polygon class="cls_3" points="470.15 308.05 470.15 302.95 470.15 297.85 471.1 297.85 472.05 297.85 472.05 301.8 472.05 305.75 471.1 306.9 470.15 308.05"/>
          </g>
          <g id="dse_E12" data-name="dse E12">
            <path class="cls_3" d="M477.55,169.55h-21.2c-.15,0-.3-.08-.41-.2s-.19-.3-.19-.5v-14.6c0-.2.07-.37.19-.5s.26-.2.41-.2h21.2c.15,0,.3.08.41.2s.19.3.19.5v14.6c0,.2-.07.37-.19.5s-.26.2-.41.2Z"/>
            <path class="cls_8" d="M476.95,169.95h-20c-.44,0-.84-.19-1.13-.5s-.47-.73-.47-1.2v-13.3c0-.47.18-.89.47-1.2s.69-.5,1.13-.5h20c.44,0,.84.19,1.13.5s.47.73.47,1.2v13.3c0,.47-.18.89-.47,1.2s-.69.5-1.13.5ZM457.35,167.95h19.2v-12.7h-19.2v12.7Z"/>
            <polygon class="cls_8" points="469.75 156.45 472.95 156.45 476.15 156.45 476.15 161.95 476.15 167.45 472.95 167.45 469.75 167.45 469.75 161.95 469.75 156.45"/>
            <polygon class="cls_8" points="458.35 157.65 459.4 158.95 460.45 160.25 458.85 160.25 457.25 160.25 457.25 161.85 457.25 163.45 458.85 163.45 460.45 163.45 459.4 164.7 458.35 165.95 459.6 165.95 460.85 165.95 462.6 163.9 464.35 161.85 462.6 159.75 460.85 157.65 459.6 157.65 458.35 157.65"/>
            <polygon class="cls_3" points="475.85 167.15 475.85 162 475.85 156.85 474.85 156.85 473.85 156.85 473.85 160.8 473.85 164.75 474.85 165.95 475.85 167.15"/>
            <polygon class="cls_3" points="470.15 167.15 470.15 162 470.15 156.85 471.15 156.85 472.15 156.85 472.15 160.8 472.15 164.75 471.15 165.95 470.15 167.15"/>
          </g>
          <g id="dse_E13" data-name="dse E13">
            <path class="cls_3" d="M39.75,309.95h-21.2c-.15,0-.3-.07-.41-.2s-.19-.3-.19-.5v-14.6c0-.2.07-.38.19-.5s.26-.2.41-.2h21.2c.15,0,.3.07.41.2s.19.3.19.5v14.6c0,.2-.07.38-.19.5s-.26.2-.41.2Z"/>
            <path class="cls_8" d="M39.15,310.35h-20c-.44,0-.84-.19-1.13-.5s-.47-.73-.47-1.2v-13.3c0-.47.18-.89.47-1.2s.69-.5,1.13-.5h20c.44,0,.84.19,1.13.5s.47.73.47,1.2v13.3c0,.47-.18.89-.47,1.2s-.69.5-1.13.5ZM19.55,308.35h19.2v-12.7h-19.2v12.7Z"/>
            <polygon class="cls_8" points="31.95 296.85 35.15 296.85 38.35 296.85 38.35 302.35 38.35 307.85 35.15 307.85 31.95 307.85 31.95 302.35 31.95 296.85"/>
            <polygon class="cls_8" points="19.45 300.55 19.45 302.15 19.45 303.75 21.05 303.75 22.65 303.75 21.6 305.05 20.55 306.35 21.8 306.35 23.05 306.35 24.75 304.25 26.45 302.15 24.75 300.1 23.05 298.05 21.8 298.05 20.55 298.05 21.6 299.3 22.65 300.55 21.05 300.55 19.45 300.55"/>
            <polygon class="cls_3" points="36.05 297.25 36.05 301.2 36.05 305.15 37.05 306.35 38.05 307.55 38.05 302.4 38.05 297.25 37.05 297.25 36.05 297.25"/>
            <polygon class="cls_3" points="34.25 297.25 34.25 301.2 34.25 305.15 33.3 306.35 32.35 307.55 32.35 302.4 32.35 297.25 33.3 297.25 34.25 297.25"/>
          </g>
          <g id="dse_E14" data-name="dse E14">
            <path class="cls_3" d="M39.75,169.05h-21.2c-.15,0-.3-.08-.41-.2s-.19-.3-.19-.5v-14.6c0-.2.07-.37.19-.5s.26-.2.41-.2h21.2c.15,0,.3.08.41.2s.19.3.19.5v14.6c0,.2-.07.37-.19.5s-.26.2-.41.2Z"/>
            <path class="cls_8" d="M39.15,169.35h-20c-.44,0-.84-.19-1.13-.5s-.47-.73-.47-1.2v-13.3c0-.47.18-.89.47-1.2s.69-.5,1.13-.5h20c.44,0,.84.19,1.13.5s.47.73.47,1.2v13.3c0,.47-.18.89-.47,1.2s-.69.5-1.13.5ZM19.55,167.35h19.2v-12.7h-19.2v12.7Z"/>
            <polygon class="cls_8" points="31.95 155.95 35.15 155.95 38.35 155.95 38.35 161.45 38.35 166.95 35.15 166.95 31.95 166.95 31.95 161.45 31.95 155.95"/>
            <polygon class="cls_8" points="19.45 159.65 19.45 161.25 19.45 162.85 21.05 162.85 22.65 162.85 21.6 164.1 20.55 165.35 21.8 165.35 23.05 165.35 24.8 163.3 26.55 161.25 24.8 159.15 23.05 157.05 21.8 157.05 20.55 157.05 21.6 158.35 22.65 159.65 21.05 159.65 19.45 159.65"/>
            <polygon class="cls_3" points="36.05 156.35 36.05 160.25 36.05 164.15 37.05 165.35 38.05 166.55 38.05 161.45 38.05 156.35 37.05 156.35 36.05 156.35"/>
            <polygon class="cls_3" points="34.35 156.35 34.35 160.25 34.35 164.15 33.35 165.35 32.35 166.55 32.35 161.45 32.35 156.35 33.35 156.35 34.35 156.35"/>
          </g>
          <g id="dse_E15" data-name="dse E15">
            <path class="cls_3" d="M40.35,705.85h-21.2c-.15,0-.3-.07-.41-.2s-.19-.3-.19-.5v-14.6c0-.2.07-.38.19-.5s.26-.2.41-.2h21.2c.15,0,.3.07.41.2s.19.3.19.5v14.6c0,.2-.07.38-.19.5s-.26.2-.41.2Z"/>
            <path class="cls_8" d="M39.65,706.25h-20c-.44,0-.84-.19-1.13-.5s-.47-.73-.47-1.2v-13.3c0-.47.18-.89.47-1.2s.69-.5,1.13-.5h20c.44,0,.84.19,1.13.5s.47.73.47,1.2v13.3c0,.47-.18.89-.47,1.2s-.69.5-1.13.5ZM20.05,704.25h19.2v-12.7h-19.2v12.7Z"/>
            <polygon class="cls_8" points="32.55 692.75 35.75 692.75 38.95 692.75 38.95 698.25 38.95 703.75 35.75 703.75 32.55 703.75 32.55 698.25 32.55 692.75"/>
            <polygon class="cls_8" points="20.05 696.45 20.05 698.05 20.05 699.65 21.65 699.65 23.25 699.65 22.15 700.95 21.05 702.25 22.3 702.25 23.55 702.25 25.3 700.15 27.05 698.05 25.3 696 23.55 693.95 22.3 693.95 21.05 693.95 22.15 695.2 23.25 696.45 21.65 696.45 20.05 696.45"/>
            <polygon class="cls_3" points="36.55 701.05 37.55 702.25 38.55 703.45 38.55 698.3 38.55 693.15 37.55 693.15 36.55 693.15 36.55 697.1 36.55 701.05"/>
            <polygon class="cls_3" points="34.85 701.05 33.85 702.25 32.85 703.45 32.85 698.3 32.85 693.15 33.85 693.15 34.85 693.15 34.85 697.1 34.85 701.05"/>
          </g>
          <g id="dse_E16" data-name="dse E16">
            <path class="cls_3" d="M40.35,564.95h-21.2c-.15,0-.3-.07-.41-.2s-.19-.3-.19-.5v-14.6c0-.2.07-.38.19-.5s.26-.2.41-.2h21.2c.15,0,.3.07.41.2s.19.3.19.5v14.6c0,.2-.07.38-.19.5s-.26.2-.41.2Z"/>
            <path class="cls_8" d="M39.75,565.35h-20c-.44,0-.84-.19-1.13-.5s-.47-.73-.47-1.2v-13.3c0-.47.18-.89.47-1.2s.69-.5,1.13-.5h20c.44,0,.84.19,1.13.5s.47.73.47,1.2v13.3c0,.47-.18.89-.47,1.2s-.69.5-1.13.5ZM20.15,563.35h19.2v-12.7h-19.2v12.7Z"/>
            <polygon class="cls_8" points="32.55 551.85 35.75 551.85 38.95 551.85 38.95 557.35 38.95 562.85 35.75 562.85 32.55 562.85 32.55 557.35 32.55 551.85"/>
            <polygon class="cls_8" points="20.05 555.55 20.05 557.15 20.05 558.75 21.65 558.75 23.25 558.75 22.15 560.05 21.05 561.35 22.35 561.35 23.65 561.35 25.35 559.25 27.05 557.15 25.35 555.05 23.65 552.95 22.35 552.95 21.05 552.95 22.15 554.25 23.25 555.55 21.65 555.55 20.05 555.55"/>
            <polygon class="cls_3" points="36.55 560.15 37.55 561.3 38.55 562.45 38.55 557.35 38.55 552.25 37.55 552.25 36.55 552.25 36.55 556.2 36.55 560.15"/>
            <polygon class="cls_3" points="34.85 560.15 33.85 561.3 32.85 562.45 32.85 557.35 32.85 552.25 33.85 552.25 34.85 552.25 34.85 556.2 34.85 560.15"/>
          </g>
        </g>
        <g id="se_Interior" data-name="se Interior">
          <g id="dse_I01" data-name="dse I01">
            <path class="cls_3" d="M72.65,439.35h-21.2c-.15,0-.3-.07-.41-.2s-.19-.3-.19-.5v-14.6c0-.2.07-.38.19-.5s.26-.2.41-.2h21.2c.15,0,.3.07.41.2s.19.3.19.5v14.6c0,.2-.08.38-.19.5s-.26.2-.41.2Z"/>
            <path class="cls_8" d="M71.95,439.75h-20c-.44,0-.84-.19-1.13-.5s-.47-.73-.47-1.2v-13.3c0-.47.18-.89.47-1.2s.69-.5,1.13-.5h20c.44,0,.84.19,1.13.5s.47.73.47,1.2v13.3c0,.47-.18.89-.47,1.2s-.69.5-1.13.5ZM52.35,437.75h19.2v-12.7h-19.2v12.7Z"/>
            <polygon class="cls_8" points="64.75 426.25 67.95 426.25 71.15 426.25 71.15 431.75 71.15 437.25 67.95 437.25 64.75 437.25 64.75 431.75 64.75 426.25"/>
            <polygon class="cls_8" points="55.45 430.05 53.9 430.05 52.35 430.05 52.35 431.65 52.35 433.25 53.9 433.25 55.45 433.25 54.4 434.5 53.35 435.75 54.6 435.75 55.85 435.75 57.6 433.7 59.35 431.65 57.6 429.55 55.85 427.45 54.6 427.45 53.35 427.45 54.4 428.75 55.45 430.05"/>
            <polygon class="cls_3" points="70.85 436.95 70.85 431.8 70.85 426.65 69.85 426.65 68.85 426.65 68.85 430.6 68.85 434.55 69.85 435.75 70.85 436.95"/>
            <polygon class="cls_3" points="65.15 436.95 65.15 431.8 65.15 426.65 66.15 426.65 67.15 426.65 67.15 430.6 67.15 434.55 66.15 435.75 65.15 436.95"/>
          </g>
          <g id="dse_I02" data-name="dse I02">
            <path class="cls_3" d="M72.55,407.75h-21.2c-.15,0-.3-.07-.41-.2s-.19-.3-.19-.5v-14.6c0-.2.07-.38.19-.5s.26-.2.41-.2h21.2c.15,0,.3.07.41.2s.19.3.19.5v14.6c0,.2-.08.38-.19.5s-.26.2-.41.2Z"/>
            <path class="cls_8" d="M71.85,408.15h-20c-.44,0-.84-.19-1.13-.5s-.47-.73-.47-1.2v-13.3c0-.47.18-.89.47-1.2s.69-.5,1.13-.5h20c.44,0,.84.19,1.13.5s.47.73.47,1.2v13.3c0,.47-.18.89-.47,1.2s-.69.5-1.13.5ZM52.25,406.15h19.2v-12.7h-19.2v12.7Z"/>
            <polygon class="cls_8" points="64.65 394.65 67.85 394.65 71.05 394.65 71.05 400.15 71.05 405.65 67.85 405.65 64.65 405.65 64.65 400.15 64.65 394.65"/>
            <polygon class="cls_8" points="53.25 395.85 54.3 397.15 55.35 398.45 53.8 398.45 52.25 398.45 52.25 400.05 52.25 401.65 53.8 401.65 55.35 401.65 54.3 402.9 53.25 404.15 54.5 404.15 55.75 404.15 57.5 402.1 59.25 400.05 57.5 397.95 55.75 395.85 54.5 395.85 53.25 395.85"/>
            <polygon class="cls_3" points="70.75 405.35 70.75 400.2 70.75 395.05 69.75 395.05 68.75 395.05 68.75 399 68.75 402.95 69.75 404.15 70.75 405.35"/>
            <polygon class="cls_3" points="65.05 405.35 65.05 400.2 65.05 395.05 66.05 395.05 67.05 395.05 67.05 399 67.05 402.95 66.05 404.15 65.05 405.35"/>
          </g>
          <g id="dse_I03" data-name="dse I03">
            <path class="cls_3" d="M217.85,439.45h-21.2c-.15,0-.3-.07-.41-.2s-.19-.3-.19-.5v-14.6c0-.2.08-.38.19-.5s.26-.2.41-.2h21.2c.15,0,.3.07.41.2s.19.3.19.5v14.6c0,.2-.08.38-.19.5s-.26.2-.41.2Z"/>
            <path class="cls_8" d="M217.15,439.75h-20c-.44,0-.84-.19-1.13-.5s-.47-.73-.47-1.2v-13.3c0-.47.18-.89.47-1.2s.69-.5,1.13-.5h20c.44,0,.84.19,1.13.5s.47.73.47,1.2v13.3c0,.47-.18.89-.47,1.2s-.69.5-1.13.5ZM197.55,437.75h19.2v-12.7h-19.2v12.7Z"/>
            <polygon class="cls_8" points="209.95 426.35 213.15 426.35 216.35 426.35 216.35 431.85 216.35 437.35 213.15 437.35 209.95 437.35 209.95 431.85 209.95 426.35"/>
            <polygon class="cls_8" points="200.65 430.05 199.1 430.05 197.55 430.05 197.55 431.65 197.55 433.25 199.1 433.25 200.65 433.25 199.6 434.5 198.55 435.75 199.8 435.75 201.05 435.75 202.8 433.7 204.55 431.65 202.8 429.55 201.05 427.45 199.8 427.45 198.55 427.45 199.6 428.75 200.65 430.05"/>
            <polygon class="cls_3" points="216.05 426.75 215.05 426.75 214.05 426.75 214.05 430.65 214.05 434.55 215.05 435.75 216.05 436.95 216.05 431.85 216.05 426.75"/>
            <polygon class="cls_3" points="210.35 426.75 211.35 426.75 212.35 426.75 212.35 430.65 212.35 434.55 211.35 435.75 210.35 436.95 210.35 431.85 210.35 426.75"/>
          </g>
          <g id="dse_I04" data-name="dse I04">
            <path class="cls_3" d="M217.65,407.85h-21.2c-.15,0-.3-.07-.41-.2s-.19-.3-.19-.5v-14.6c0-.2.08-.38.19-.5s.26-.2.41-.2h21.2c.15,0,.3.07.41.2s.19.3.19.5v14.6c0,.2-.08.38-.19.5s-.26.2-.41.2Z"/>
            <path class="cls_8" d="M217.05,408.15h-20c-.44,0-.84-.19-1.13-.5s-.47-.73-.47-1.2v-13.3c0-.47.18-.89.47-1.2s.69-.5,1.13-.5h20c.44,0,.84.19,1.13.5s.47.73.47,1.2v13.3c0,.47-.18.89-.47,1.2s-.69.5-1.13.5ZM197.45,406.15h19.2v-12.7h-19.2v12.7Z"/>
            <polygon class="cls_8" points="209.85 394.75 213.05 394.75 216.25 394.75 216.25 400.25 216.25 405.75 213.05 405.75 209.85 405.75 209.85 400.25 209.85 394.75"/>
            <polygon class="cls_8" points="198.45 395.85 199.5 397.15 200.55 398.45 198.95 398.45 197.35 398.45 197.35 400.05 197.35 401.65 198.95 401.65 200.55 401.65 199.5 402.9 198.45 404.15 199.7 404.15 200.95 404.15 202.7 402.1 204.45 400.05 202.7 397.95 200.95 395.85 199.7 395.85 198.45 395.85"/>
            <polygon class="cls_3" points="215.95 395.15 214.95 395.15 213.95 395.15 213.95 399.05 213.95 402.95 214.95 404.15 215.95 405.35 215.95 400.25 215.95 395.15"/>
            <polygon class="cls_3" points="210.25 395.15 211.25 395.15 212.25 395.15 212.25 399.05 212.25 402.95 211.25 404.15 210.25 405.35 210.25 400.25 210.25 395.15"/>
          </g>
          <g id="dse_I05" data-name="dse I05">
            <path class="cls_3" d="M299.95,439.25h-21.2c-.15,0-.3-.07-.41-.2s-.19-.3-.19-.5v-14.6c0-.2.07-.38.19-.5s.26-.2.41-.2h21.2c.15,0,.3.07.41.2s.19.3.19.5v14.6c0,.2-.07.38-.19.5s-.26.2-.41.2Z"/>
            <path class="cls_8" d="M299.35,439.55h-20c-.44,0-.84-.19-1.13-.5s-.47-.73-.47-1.2v-13.3c0-.47.18-.89.47-1.2s.69-.5,1.13-.5h20c.44,0,.84.19,1.13.5s.47.73.47,1.2v13.3c0,.47-.18.89-.47,1.2s-.69.5-1.13.5ZM279.75,437.55h19.2v-12.7h-19.2v12.7Z"/>
            <polygon class="cls_8" points="292.15 426.05 295.35 426.05 298.55 426.05 298.55 431.55 298.55 437.05 295.35 437.05 292.15 437.05 292.15 431.55 292.15 426.05"/>
            <polygon class="cls_8" points="283.25 427.25 282 427.25 280.75 427.25 281.8 428.55 282.85 429.85 281.25 429.85 279.65 429.85 279.65 431.45 279.65 433.05 281.25 433.05 282.85 433.05 281.8 434.3 280.75 435.55 282 435.55 283.25 435.55 285 433.5 286.75 431.45 285 429.35 283.25 427.25"/>
            <polygon class="cls_3" points="296.25 434.35 297.25 435.55 298.25 436.75 298.25 431.6 298.25 426.45 297.25 426.45 296.25 426.45 296.25 430.4 296.25 434.35"/>
            <polygon class="cls_3" points="294.55 434.35 293.55 435.55 292.55 436.75 292.55 431.6 292.55 426.45 293.55 426.45 294.55 426.45 294.55 430.4 294.55 434.35"/>
          </g>
          <g id="dse_I06" data-name="dse I06">
            <path class="cls_3" d="M299.85,407.65h-21.2c-.15,0-.3-.07-.41-.2s-.19-.3-.19-.5v-14.6c0-.2.07-.38.19-.5s.26-.2.41-.2h21.2c.15,0,.3.07.41.2s.19.3.19.5v14.6c0,.2-.07.38-.19.5s-.26.2-.41.2Z"/>
            <path class="cls_8" d="M299.25,407.95h-20c-.44,0-.84-.19-1.13-.5s-.47-.73-.47-1.2v-13.3c0-.47.18-.89.47-1.2s.69-.5,1.13-.5h20c.44,0,.84.19,1.13.5s.47.73.47,1.2v13.3c0,.47-.18.89-.47,1.2s-.69.5-1.13.5ZM279.65,405.95h19.2v-12.7h-19.2v12.7Z"/>
            <polygon class="cls_8" points="292.05 394.55 295.25 394.55 298.45 394.55 298.45 400.05 298.45 405.55 295.25 405.55 292.05 405.55 292.05 400.05 292.05 394.55"/>
            <polygon class="cls_8" points="286.65 399.85 284.9 397.75 283.15 395.65 281.9 395.65 280.65 395.65 281.7 396.95 282.75 398.25 281.15 398.25 279.55 398.25 279.55 399.85 279.55 401.45 281.15 401.45 282.75 401.45 281.7 402.7 280.65 403.95 281.9 403.95 283.15 403.95 284.9 401.9 286.65 399.85"/>
            <polygon class="cls_3" points="296.15 402.75 297.15 403.95 298.15 405.15 298.15 400.05 298.15 394.95 297.15 394.95 296.15 394.95 296.15 398.85 296.15 402.75"/>
            <polygon class="cls_3" points="294.45 402.75 293.45 403.95 292.45 405.15 292.45 400.05 292.45 394.95 293.45 394.95 294.45 394.95 294.45 398.85 294.45 402.75"/>
          </g>
          <g id="dse_I07" data-name="dse I07">
            <path class="cls_3" d="M445.15,439.25h-21.2c-.15,0-.3-.07-.41-.2s-.19-.3-.19-.5v-14.6c0-.2.07-.38.19-.5s.26-.2.41-.2h21.2c.15,0,.3.07.41.2s.19.3.19.5v14.6c0,.2-.07.38-.19.5s-.26.2-.41.2Z"/>
            <path class="cls_8" d="M444.55,439.55h-20c-.44,0-.84-.19-1.13-.5s-.47-.73-.47-1.2v-13.3c0-.47.18-.89.47-1.2s.69-.5,1.13-.5h20c.44,0,.84.19,1.13.5s.47.73.47,1.2v13.3c0,.47-.18.89-.47,1.2s-.69.5-1.13.5ZM424.95,437.55h19.2v-12.7h-19.2v12.7Z"/>
            <polygon class="cls_8" points="437.35 426.15 440.55 426.15 443.75 426.15 443.75 431.65 443.75 437.15 440.55 437.15 437.35 437.15 437.35 431.65 437.35 426.15"/>
            <polygon class="cls_8" points="428.45 427.25 427.2 427.25 425.95 427.25 427 428.55 428.05 429.85 426.45 429.85 424.85 429.85 424.85 431.45 424.85 433.05 426.45 433.05 428.05 433.05 427 434.35 425.95 435.65 427.2 435.65 428.45 435.65 430.2 433.55 431.95 431.45 430.2 429.35 428.45 427.25"/>
            <polygon class="cls_3" points="443.45 436.75 443.45 431.65 443.45 426.55 442.45 426.55 441.45 426.55 441.45 430.5 441.45 434.45 442.45 435.6 443.45 436.75"/>
            <polygon class="cls_3" points="437.75 436.75 437.75 431.65 437.75 426.55 438.75 426.55 439.75 426.55 439.75 430.5 439.75 434.45 438.75 435.6 437.75 436.75"/>
          </g>
          <g id="dse_I08" data-name="dse I08">
            <path class="cls_3" d="M445.05,407.65h-21.2c-.15,0-.3-.07-.41-.2s-.19-.3-.19-.5v-14.6c0-.2.07-.38.19-.5s.26-.2.41-.2h21.2c.15,0,.3.07.41.2s.19.3.19.5v14.6c0,.2-.07.38-.19.5s-.26.2-.41.2Z"/>
            <path class="cls_8" d="M444.45,408.05h-20c-.44,0-.84-.19-1.13-.5s-.47-.73-.47-1.2v-13.3c0-.47.18-.89.47-1.2s.69-.5,1.13-.5h20c.44,0,.84.19,1.13.5s.47.73.47,1.2v13.3c0,.47-.18.89-.47,1.2s-.69.5-1.13.5ZM424.85,406.05h19.2v-12.7h-19.2v12.7Z"/>
            <polygon class="cls_8" points="437.25 394.55 440.45 394.55 443.65 394.55 443.65 400.05 443.65 405.55 440.45 405.55 437.25 405.55 437.25 400.05 437.25 394.55"/>
            <polygon class="cls_8" points="431.85 399.85 430.1 397.75 428.35 395.65 427.1 395.65 425.85 395.65 426.9 396.95 427.95 398.25 426.35 398.25 424.75 398.25 424.75 399.85 424.75 401.45 426.35 401.45 427.95 401.45 426.9 402.75 425.85 404.05 427.1 404.05 428.35 404.05 430.1 401.95 431.85 399.85"/>
            <polygon class="cls_3" points="443.35 405.15 443.35 400.05 443.35 394.95 442.35 394.95 441.35 394.95 441.35 398.9 441.35 402.85 442.35 404 443.35 405.15"/>
            <polygon class="cls_3" points="437.65 405.15 437.65 400.05 437.65 394.95 438.6 394.95 439.55 394.95 439.55 398.9 439.55 402.85 438.6 404 437.65 405.15"/>
          </g>
        </g>
      </g>
      <g id="FoodTruck">
        <polygon id="ft_01" data-name="ft 01" class="cls_7" points="397.65 423.15 404.9 423.15 412.15 423.15 412.15 431.1 412.15 439.05 404.9 439.05 397.65 439.05 397.65 431.1 397.65 423.15"/>
        <polygon id="ft_02" data-name="ft 02" class="cls_7" points="309.85 423.05 317.1 423.05 324.35 423.05 324.35 431 324.35 438.95 317.1 438.95 309.85 438.95 309.85 431 309.85 423.05"/>
        <polygon id="ft_03" data-name="ft 03" class="cls_7" points="130.65 425.95 136.75 425.95 142.85 425.95 142.85 432.6 142.85 439.25 136.75 439.25 130.65 439.25 130.65 432.6 130.65 425.95"/>
        <polygon id="ft_04" data-name="ft 04" class="cls_7" points="77.55 426.25 83.65 426.25 89.75 426.25 89.75 432.9 89.75 439.55 83.65 439.55 77.55 439.55 77.55 432.9 77.55 426.25"/>
        <polygon id="ft_05" data-name="ft 05" class="cls_7" points="77.55 408.95 83.65 408.95 89.75 408.95 89.75 415.6 89.75 422.25 83.65 422.25 77.55 422.25 77.55 415.6 77.55 408.95"/>
        <polygon id="ft_06" data-name="ft 06" class="cls_7" points="77.55 392.15 83.65 392.15 89.75 392.15 89.75 398.8 89.75 405.45 83.65 405.45 77.55 405.45 77.55 398.8 77.55 392.15"/>
        <polygon id="ft_07" data-name="ft 07" class="cls_7" points="113.65 392.25 119.75 392.25 125.85 392.25 125.85 398.9 125.85 405.55 119.75 405.55 113.65 405.55 113.65 398.9 113.65 392.25"/>
        <polygon id="ft_08" data-name="ft 08" class="cls_7" points="149.05 392.15 155.15 392.15 161.25 392.15 161.25 398.8 161.25 405.45 155.15 405.45 149.05 405.45 149.05 398.8 149.05 392.15"/>
        <polygon id="ft_09" data-name="ft 09" class="cls_7" points="181.85 392.25 187.95 392.25 194.05 392.25 194.05 398.9 194.05 405.55 187.95 405.55 181.85 405.55 181.85 398.9 181.85 392.25"/>
        <polygon id="ft_10" data-name="ft 10" class="cls_7" points="231.05 387.75 236.05 387.75 241.05 387.75 241.05 395.75 241.05 403.75 236.05 403.75 231.05 403.75 231.05 395.75 231.05 387.75"/>
        <polygon id="ft_11" data-name="ft 11" class="cls_7" points="258.25 394.15 262.55 394.15 266.85 394.15 266.85 398.85 266.85 403.55 262.55 403.55 258.25 403.55 258.25 398.85 258.25 394.15"/>
        <polygon id="ft_12" data-name="ft 12" class="cls_7" points="309.85 392.05 317.1 392.05 324.35 392.05 324.35 400 324.35 407.95 317.1 407.95 309.85 407.95 309.85 400 309.85 392.05"/>
        <polygon id="ft_13" data-name="ft 13" class="cls_7" points="397.35 392.05 404.6 392.05 411.85 392.05 411.85 400 411.85 407.95 404.6 407.95 397.35 407.95 397.35 400 397.35 392.05"/>
      </g>
    </g>
    <g id="Nivel2Pabellones">
      <g id="Nivel2Pabellon1">
        <g>
          <polygon id="bp1" class="cls_8" points="275.45 440.25 365.1 440.25 454.75 440.25 454.75 609.3 454.75 778.35 365.1 778.35 275.45 778.35 275.45 609.3 275.45 440.25"/>
          <path class="cls_1" d="M454.9,778.5h-179.6v-338.4h179.6v338.4ZM275.6,778.2h179v-337.8h-179v337.8Z"/>
        </g>
        <g id="Pabellon1">
          <g id="cafetep1">
            <polygon id="cp1_01" data-name="cp1 01" class="cls_9" points="401.55 666.55 425.1 666.55 448.65 666.55 448.65 703.35 448.65 740.15 425.1 740.15 401.55 740.15 401.55 703.35 401.55 666.55"/>
          </g>
          <g id="escenp1">
            <polygon id="ep1_01" data-name="ep1 01" class="cls_4" points="344.25 709.15 365.6 709.15 386.95 709.15 386.95 741 386.95 772.85 365.6 772.85 344.25 772.85 344.25 741 344.25 709.15"/>
            <polygon id="ep1_02" data-name="ep1 02" class="cls_4" points="420.65 560.35 433.9 560.35 447.15 560.35 447.15 581.05 447.15 601.75 433.9 601.75 420.65 601.75 420.65 581.05 420.65 560.35"/>
          </g>
          <g id="standsp1">
            <polygon id="sp1_01" data-name="sp1 01" class="cls_2" points="288.25 746.35 311.2 746.35 334.15 746.35 334.15 753.8 334.15 761.25 311.2 761.25 288.25 761.25 288.25 753.8 288.25 746.35"/>
            <polygon id="sp1_02" data-name="sp1 02" class="cls_2" points="279.45 687.45 298 687.45 316.55 687.45 316.55 707.9 316.55 728.35 298 728.35 279.45 728.35 279.45 707.9 279.45 687.45"/>
            <polygon id="sp1_03" data-name="sp1 03" class="cls_2" points="279.95 619.25 298.5 619.25 317.05 619.25 317.05 647.4 317.05 675.55 298.5 675.55 279.95 675.55 279.95 647.4 279.95 619.25"/>
            <polygon id="sp1_04" data-name="sp1 04" class="cls_2" points="279.65 563.95 298.3 563.95 316.95 563.95 316.95 587.55 316.95 611.15 298.3 611.15 279.65 611.15 279.65 587.55 279.65 563.95"/>
            <path id="sp1_05" data-name="sp1 05" class="cls_2" d="M280.05,542.95l13.95.1,13.95.1v-52l11.55-12.25,11.55-12.25v-22.3l-25.55-.15-25.55-.15v98.9h.05s.05,0,.05,0Z"/>
            <path id="sp1_06" data-name="sp1 06" class="cls_2" d="M364.15,445.35c4.97,0,9.47,1.42,12.73,3.72s5.27,5.47,5.27,8.98-2.01,6.68-5.27,8.98-7.76,3.72-12.73,3.72-9.47-1.42-12.73-3.72-5.27-5.47-5.27-8.98,2.01-6.68,5.27-8.98,7.76-3.72,12.73-3.72Z"/>
            <path id="sp1_07" data-name="sp1 07" class="cls_2" d="M421.75,457.55c4.97,0,9.47,1.42,12.73,3.72s5.27,5.47,5.27,8.98-2.01,6.68-5.27,8.98-7.76,3.72-12.73,3.72-9.47-1.42-12.73-3.72-5.27-5.47-5.27-8.98,2.01-6.68,5.27-8.98,7.76-3.72,12.73-3.72Z"/>
            <path id="sp1_08" data-name="sp1 08" class="cls_2" d="M423.35,511.35c6.05,0,11.52,2.18,15.49,5.71s6.41,8.4,6.41,13.79-2.45,10.26-6.41,13.79-9.44,5.71-15.49,5.71-11.52-2.18-15.49-5.71-6.41-8.4-6.41-13.79,2.45-10.26,6.41-13.79,9.44-5.71,15.49-5.71Z"/>
            <polygon id="sp1_09" data-name="sp1 09" class="cls_2" points="409.45 622.05 421.25 622.05 433.05 622.05 433.05 641.25 433.05 660.45 421.25 660.45 409.45 660.45 409.45 641.25 409.45 622.05"/>
            <path id="sp1_10" data-name="sp1 10" class="cls_2" d="M346.95,619.55h30.9c3.2,0,6.07,1.32,8.15,3.47s3.35,5.13,3.35,8.43v49.5c0,3.3-1.3,6.27-3.39,8.43s-4.96,3.48-8.11,3.48h-30.9c-3.2,0-6.07-1.32-8.15-3.47s-3.35-5.13-3.35-8.43v-49.5c0-3.3,1.3-6.27,3.39-8.43s4.96-3.48,8.11-3.48Z"/>
            <path id="sp1_11" data-name="sp1 11" class="cls_2" d="M362.45,568.35c6.46,0,12.31,2.56,16.55,6.71s6.85,9.87,6.85,16.19-2.62,12.05-6.85,16.19-10.08,6.71-16.55,6.71-12.31-2.56-16.55-6.71-6.85-9.87-6.85-16.19,2.62-12.05,6.85-16.19,10.08-6.71,16.55-6.71Z"/>
            <path id="sp1_12" data-name="sp1 12" class="cls_2" d="M362.05,507.45c8.09,0,15.42,2.88,20.72,7.53s8.58,11.08,8.58,18.17-3.28,13.52-8.58,18.17-12.63,7.53-20.72,7.53-15.42-2.88-20.72-7.53-8.58-11.08-8.58-18.17,3.28-13.52,8.58-18.17,12.63-7.53,20.72-7.53Z"/>
            <path id="sp1_13" data-name="sp1 13" class="cls_2" d="M329.45,476.45h66.4c2,0,3.8.82,5.1,2.17s2.1,3.22,2.1,5.33v10.8c0,2.05-.8,3.93-2.1,5.29s-3.1,2.21-5.1,2.21h-66.4c-2,0-3.8-.82-5.1-2.17s-2.1-3.22-2.1-5.33v-10.8c0-2.05.8-3.93,2.1-5.29s3.1-2.21,5.1-2.21Z"/>
          </g>
        </g>
      </g>
      <g id="Nivel2Pabellon2">
        <g>
          <polygon id="bp2" class="cls_8" points="41.55 440.25 131.2 440.25 220.85 440.25 220.85 609.3 220.85 778.35 131.2 778.35 41.55 778.35 41.55 609.3 41.55 440.25"/>
          <path class="cls_1" d="M221,778.5H41.4v-338.4h179.6v338.4ZM41.7,778.2h179v-337.8H41.7v337.8Z"/>
        </g>
        <g id="Pabellon2">
          <g id="cafetep2">
            <polygon id="cp2_01" data-name="cp2 01" class="cls_9" points="99.25 749.15 156.5 749.15 213.75 749.15 213.75 759.75 213.75 770.35 156.5 770.35 99.25 770.35 99.25 759.75 99.25 749.15"/>
          </g>
          <g id="standsp2">
            <polygon id="sp2_01" data-name="sp2 01" class="cls_2" points="50.45 622.85 71.05 622.85 91.65 622.85 91.65 693.2 91.65 763.55 71.05 763.55 50.45 763.55 50.45 693.2 50.45 622.85"/>
            <polygon id="sp2_02" data-name="sp2 02" class="cls_2" points="50.15 556.45 70.75 556.45 91.35 556.45 91.35 585.5 91.35 614.55 70.75 614.55 50.15 614.55 50.15 585.5 50.15 556.45"/>
            <polygon id="sp2_03" data-name="sp2 03" class="cls_2" points="50.85 496.55 71.45 496.55 92.05 496.55 92.05 525.6 92.05 554.65 71.45 554.65 50.85 554.65 50.85 525.6 50.85 496.55"/>
            <polygon id="sp2_04" data-name="sp2 04" class="cls_2" points="50.75 455.15 71.2 455.15 91.65 455.15 91.65 471.9 91.65 488.65 71.2 488.65 50.75 488.65 50.75 471.9 50.75 455.15"/>
            <polygon id="sp2_05" data-name="sp2 05" class="cls_2" points="105.45 471.75 110.7 471.75 115.95 471.75 115.95 480.3 115.95 488.85 110.7 488.85 105.45 488.85 105.45 480.3 105.45 471.75"/>
            <polygon id="sp2_06" data-name="sp2 06" class="cls_2" points="126.55 471.75 142.05 471.75 157.55 471.75 157.55 480.2 157.55 488.65 142.05 488.65 126.55 488.65 126.55 480.2 126.55 471.75"/>
            <polygon id="sp2_07" data-name="sp2 07" class="cls_2" points="111.65 497.05 132.2 497.05 152.75 497.05 152.75 505.5 152.75 513.95 132.2 513.95 111.65 513.95 111.65 505.5 111.65 497.05"/>
            <polygon id="sp2_08" data-name="sp2 08" class="cls_2" points="111.45 521.55 132.05 521.55 152.65 521.55 152.65 555.5 152.65 589.45 132.05 589.45 111.45 589.45 111.45 555.5 111.45 521.55"/>
            <polygon id="sp2_09" data-name="sp2 09" class="cls_2" points="103.15 597.25 130.35 597.25 157.55 597.25 157.55 639.9 157.55 682.55 130.35 682.55 103.15 682.55 103.15 639.9 103.15 597.25"/>
            <polygon id="sp2_10" data-name="sp2 10" class="cls_2" points="102.75 689.85 115.9 689.85 129.05 689.85 129.05 698.45 129.05 707.05 115.9 707.05 102.75 707.05 102.75 698.45 102.75 689.85"/>
            <polygon id="sp2_11" data-name="sp2 11" class="cls_2" points="139.65 689.95 149.65 689.95 159.65 689.95 159.65 698.6 159.65 707.25 149.65 707.25 139.65 707.25 139.65 698.6 139.65 689.95"/>
            <polygon id="sp2_12" data-name="sp2 12" class="cls_2" points="99.95 723.55 110.65 723.55 121.35 723.55 121.35 731.85 121.35 740.15 110.65 740.15 99.95 740.15 99.95 731.85 99.95 723.55"/>
            <polygon id="sp2_13" data-name="sp2 13" class="cls_2" points="130.55 723.55 146.75 723.55 162.95 723.55 162.95 727.75 162.95 731.95 146.75 731.95 130.55 731.95 130.55 727.75 130.55 723.55"/>
            <polygon id="sp2_14" data-name="sp2 14" class="cls_2" points="171.85 722.65 192.6 722.65 213.35 722.65 213.35 732 213.35 741.35 192.6 741.35 171.85 741.35 171.85 732 171.85 722.65"/>
            <polygon id="sp2_15" data-name="sp2 15" class="cls_2" points="172.05 673.05 192.8 673.05 213.55 673.05 213.55 690.2 213.55 707.35 192.8 707.35 172.05 707.35 172.05 690.2 172.05 673.05"/>
            <polygon id="sp2_16" data-name="sp2 16" class="cls_2" points="172.05 601.95 192.8 601.95 213.55 601.95 213.55 629.45 213.55 656.95 192.8 656.95 172.05 656.95 172.05 629.45 172.05 601.95"/>
            <polygon id="sp2_17" data-name="sp2 17" class="cls_2" points="172.75 555.15 192.95 555.15 213.15 555.15 213.15 570.9 213.15 586.65 192.95 586.65 172.75 586.65 172.75 570.9 172.75 555.15"/>
            <polygon id="sp2_18" data-name="sp2 18" class="cls_2" points="172.55 522.05 193.05 522.05 213.55 522.05 213.55 530.3 213.55 538.55 193.05 538.55 172.55 538.55 172.55 530.3 172.55 522.05"/>
            <polygon id="sp2_19" data-name="sp2 19" class="cls_2" points="172.75 497.25 193.25 497.25 213.75 497.25 213.75 505.55 213.75 513.85 193.25 513.85 172.75 513.85 172.75 505.55 172.75 497.25"/>
            <polygon id="sp2_20" data-name="sp2 20" class="cls_2" points="172.75 471.95 178 471.95 183.25 471.95 183.25 476.25 183.25 480.55 178 480.55 172.75 480.55 172.75 476.25 172.75 471.95"/>
            <polygon id="sp2_21" data-name="sp2 21" class="cls_2" points="192.45 472.05 203.15 472.05 213.85 472.05 213.85 476.35 213.85 480.65 203.15 480.65 192.45 480.65 192.45 476.35 192.45 472.05"/>
            <polygon id="sp2_22" data-name="sp2 22" class="cls_2" points="172.55 445.45 193.15 445.45 213.75 445.45 213.75 454.15 213.75 462.85 193.15 462.85 172.55 462.85 172.55 454.15 172.55 445.45"/>
          </g>
        </g>
      </g>
      <g id="Nivel2Pabellon3">
        <g>
          <polygon id="bp3" class="cls_8" points="275.55 53.15 365.1 53.15 454.65 53.15 454.65 222 454.65 390.85 365.1 390.85 275.55 390.85 275.55 222 275.55 53.15"/>
          <path class="cls_1" d="M454.8,391h-179.4V53h179.4v338ZM275.7,390.7h178.8V53.3h-178.8v337.4Z"/>
        </g>
        <g id="Pabellon3">
          <path id="activp3_01" data-name="activp3 01" class="cls_9" d="M288.25,57.25h153.8c2,0,3.8.88,5.1,2.29s2.1,3.36,2.1,5.51v311.4c0,2.15-.8,4.1-2.1,5.51s-3.1,2.29-5.1,2.29h-153.8c-2,0-3.8-.88-5.1-2.29s-2.1-3.36-2.1-5.51V65.05c0-2.15.8-4.1,2.1-5.51s3.1-2.29,5.1-2.29h0Z"/>
          <g id="tp3">
            <g id="tp3_01" data-name="tp3 01" class="cls_12">
              <text class="cls_13" transform="translate(301.35 214.05)"><tspan class="cls_11" x="0" y="0">A</tspan><tspan x="12.45" y="0">TRACCIONES</tspan></text>
              <text class="cls_13" transform="translate(324.95 239.25)"><tspan x="0" y="0">DE FERI</tspan><tspan class="cls_15" x="82.84" y="0">A</tspan></text>
            </g>
          </g>
        </g>
      </g>
      <g id="Nivel2Pabellon4">
        <g>
          <polygon id="bp4" class="cls_8" points="41.55 53.15 131.15 53.15 220.75 53.15 220.75 222.05 220.75 390.95 131.15 390.95 41.55 390.95 41.55 222.05 41.55 53.15"/>
          <path class="cls_1" d="M220.9,391.1H41.4V53h179.5v338.1ZM41.7,390.8h178.9V53.3H41.7v337.5Z"/>
        </g>
        <g id="Pabellon4">
          <g id="cafetep4">
            <polygon id="cp4_01" data-name="cp4 01" class="cls_9" points="103.75 336.45 129.9 336.45 156.05 336.45 156.05 360.7 156.05 384.95 129.9 384.95 103.75 384.95 103.75 360.7 103.75 336.45"/>
          </g>
          <g id="standsp4">
            <polygon id="sp4_01" data-name="sp4 01" class="cls_2" points="45.55 235.25 66.2 235.25 86.85 235.25 86.85 307.25 86.85 379.25 66.2 379.25 45.55 379.25 45.55 307.25 45.55 235.25"/>
            <polygon id="sp4_02" data-name="sp4 02" class="cls_2" points="97.05 243.15 129.35 243.15 161.65 243.15 161.65 281.85 161.65 320.55 129.35 320.55 97.05 320.55 97.05 281.85 97.05 243.15"/>
            <path id="sp4_03" data-name="sp4 03" class="cls_2" d="M46.05,58.15v169.2s31.38,0,62.81,0h62.89v25.6l21.55-.2,21.55-.2.1-97.3.1-97.3H46.05v.2Z"/>
            <polygon id="sp4_04" data-name="sp4 04" class="cls_2" points="170.75 262.85 192.9 262.85 215.05 262.85 215.05 291.5 215.05 320.15 192.9 320.15 170.75 320.15 170.75 291.5 170.75 262.85"/>
            <polygon id="sp4_05" data-name="sp4 05" class="cls_2" points="171.25 336.35 192.7 336.35 214.15 336.35 214.15 345.75 214.15 355.15 192.7 355.15 171.25 355.15 171.25 345.75 171.25 336.35"/>
            <polygon id="sp4_06" data-name="sp4 06" class="cls_2" points="170.95 359.95 192.4 359.95 213.85 359.95 213.85 369.35 213.85 378.75 192.4 378.75 170.95 378.75 170.95 369.35 170.95 359.95"/>
          </g>
        </g>
      </g>
    </g>
  </g>
  <g id="MarcadoresPabellones">
    <g id="MPG">
      <g id="MP4">
        <path class="cls_1" d="M148.45,245.75l-1.6-3.9-1.6-3.9c-.3-.75-.8-1.38-1.43-1.81s-1.38-.69-2.18-.69h-9.2c3.25-4.35,7.05-9.75,10.04-15.06s5.16-10.54,5.16-14.54c0-6.25-2.45-11.9-6.41-15.99s-9.44-6.61-15.49-6.61-11.52,2.53-15.49,6.61-6.41,9.74-6.41,15.99,2.15,11.5,5.12,16.26,6.77,9.04,10.07,13.34h-9.2c-.8,0-1.55.25-2.17.69s-1.12,1.06-1.42,1.81l-1.6,3.9-1.6,3.9c-.25.6-.35,1.25-.29,1.9s.29,1.3.69,1.9c.35.55.82,1,1.37,1.31s1.18.49,1.82.49h38c.65,0,1.28-.17,1.83-.49s1.02-.76,1.37-1.31.57-1.18.65-1.83,0-1.32-.25-1.98h.2ZM125.85,240.65h0c-.2,0-.38-.05-.54-.14s-.31-.21-.46-.36c-2.25-2.8-7.08-8.95-11.34-15.61s-7.96-13.84-7.96-18.69,2.27-10.1,5.95-14.14,8.75-6.86,14.35-6.86,10.67,2.35,14.35,6.15,5.95,9.05,5.95,14.85-3.7,13-7.96,19.44-9.09,12.11-11.34,14.86c-.1.15-.25.28-.42.36s-.38.14-.58.14Z"/>
        <path class="cls_1" d="M138.45,205.85c0,3.6-1.4,6.85-3.68,9.2s-5.43,3.8-8.92,3.8-6.65-1.45-8.92-3.8-3.68-5.6-3.68-9.2,1.4-6.85,3.67-9.2,5.42-3.8,8.92-3.8,6.65,1.45,8.93,3.8,3.67,5.6,3.67,9.2Z"/>
      </g>
      <g id="MP3">
        <path class="cls_1" d="M389.75,245.75l-1.6-3.9-1.6-3.9c-.3-.75-.8-1.38-1.43-1.81s-1.38-.69-2.18-.69h-9.2c3.25-4.35,7.05-9.75,10.04-15.06s5.16-10.54,5.16-14.54c0-6.25-2.45-11.9-6.41-15.99s-9.44-6.61-15.49-6.61-11.53,2.53-15.49,6.61-6.41,9.74-6.41,15.99,2.15,11.5,5.13,16.26,6.78,9.04,10.08,13.34h-9.2c-.8,0-1.55.25-2.18.69s-1.12,1.06-1.43,1.81l-1.6,3.9-1.6,3.9c-.25.6-.35,1.25-.29,1.9s.29,1.3.69,1.9c.35.55.83,1,1.38,1.31s1.17.49,1.83.49h38c.65,0,1.27-.17,1.82-.49s1.03-.76,1.38-1.31.58-1.18.65-1.83,0-1.32-.25-1.98h.2ZM367.15,240.65h0c-.2,0-.38-.05-.54-.14s-.31-.21-.46-.36c-2.25-2.8-7.07-8.95-11.34-15.61s-7.96-13.84-7.96-18.69,2.28-10.1,5.95-14.14,8.75-6.86,14.35-6.86,10.67,2.35,14.35,6.15,5.95,9.05,5.95,14.85-3.7,13-7.96,19.44-9.09,12.11-11.34,14.86c-.1.15-.25.28-.43.36s-.37.14-.57.14Z"/>
        <path class="cls_1" d="M379.75,205.85c0,3.6-1.4,6.85-3.68,9.2s-5.43,3.8-8.93,3.8-6.65-1.45-8.93-3.8-3.68-5.6-3.68-9.2,1.4-6.85,3.68-9.2,5.43-3.8,8.93-3.8,6.65,1.45,8.93,3.8,3.68,5.6,3.68,9.2Z"/>
      </g>
      <g id="MP2">
        <path class="cls_1" d="M159.35,638.55l-1.6-3.9-1.6-3.9c-.3-.75-.8-1.38-1.43-1.81s-1.38-.69-2.18-.69h-9.2c3.25-4.35,7.05-9.75,10.04-15.06s5.16-10.54,5.16-14.54c0-6.25-2.45-11.9-6.41-15.99s-9.44-6.61-15.49-6.61-11.52,2.52-15.49,6.61-6.41,9.74-6.41,15.99,2.15,11.5,5.12,16.26,6.78,9.04,10.08,13.34h-9.2c-.8,0-1.55.25-2.17.69s-1.12,1.06-1.42,1.81l-1.6,3.9-1.6,3.9c-.25.6-.35,1.25-.29,1.9s.29,1.3.69,1.9c.35.55.82,1,1.37,1.31s1.18.49,1.82.49h38c.65,0,1.28-.18,1.83-.49s1.02-.76,1.37-1.31.57-1.17.65-1.82,0-1.33-.25-1.97h.2ZM136.75,633.55h0c-.2,0-.37-.05-.54-.14s-.31-.21-.46-.36c-2.25-2.8-7.08-8.95-11.34-15.61s-7.96-13.84-7.96-18.69,2.27-10.1,5.95-14.14,8.75-6.86,14.35-6.86,10.68,2.35,14.35,6.15,5.95,9.05,5.95,14.85-3.7,13-7.96,19.44-9.09,12.11-11.34,14.86c-.1.15-.25.27-.43.36s-.38.14-.57.14Z"/>
        <path class="cls_1" d="M149.25,598.65c0,3.6-1.4,6.85-3.68,9.2s-5.43,3.8-8.93,3.8-6.65-1.45-8.92-3.8-3.67-5.6-3.67-9.2,1.4-6.85,3.67-9.2,5.42-3.8,8.92-3.8,6.65,1.45,8.93,3.8,3.68,5.6,3.68,9.2Z"/>
      </g>
      <g id="MP1">
        <path class="cls_1" d="M389.75,640.15l-1.6-3.9-1.6-3.9c-.3-.75-.8-1.38-1.43-1.81s-1.38-.69-2.18-.69h-9.2c3.25-4.35,7.05-9.75,10.04-15.06s5.16-10.54,5.16-14.54c0-6.25-2.45-11.9-6.41-15.99s-9.44-6.61-15.49-6.61-11.53,2.52-15.49,6.61-6.41,9.74-6.41,15.99,2.15,11.5,5.13,16.26,6.78,9.04,10.08,13.34h-9.2c-.8,0-1.55.25-2.18.69s-1.12,1.06-1.43,1.81l-1.6,3.9-1.6,3.9c-.25.6-.35,1.25-.29,1.9s.29,1.3.69,1.9c.35.55.83,1,1.38,1.31s1.17.49,1.83.49h38c.65,0,1.27-.18,1.82-.49s1.03-.76,1.38-1.31.58-1.17.65-1.82,0-1.33-.25-1.97h.2ZM367.15,635.05h0c-.2,0-.38-.05-.54-.14s-.31-.21-.46-.36c-2.25-2.8-7.07-8.95-11.34-15.61s-7.96-13.84-7.96-18.69,2.28-10.1,5.95-14.14,8.75-6.86,14.35-6.86,10.67,2.35,14.35,6.15,5.95,9.05,5.95,14.85-3.7,13-7.96,19.44-9.09,12.11-11.34,14.86c-.1.15-.25.27-.43.36s-.37.14-.57.14Z"/>
        <path class="cls_1" d="M379.75,600.25c0,3.6-1.4,6.85-3.68,9.2s-5.43,3.8-8.93,3.8-6.65-1.45-8.93-3.8-3.68-5.6-3.68-9.2,1.4-6.85,3.68-9.2,5.43-3.8,8.93-3.8,6.65,1.45,8.93,3.8,3.68,5.6,3.68,9.2Z"/>
      </g>
    </g>
    <g id="MP1-2">
      <g id="MCafep1">
        <path id="mcp1_01" data-name="mcp1 01" class="cls_14" d="M426.25,709.65c-7.65-7.8-3.85-11.7-.04-11.7s7.64,3.9.04,11.7l-.26.04q-.09.01.26-.04Z"/>
      </g>
      <g id="MEscenp1">
        <path id="mep1_01" data-name="mep1 01" class="cls_14" d="M365.55,745.95c-7.65-7.8-3.85-11.7-.04-11.7s7.64,3.9.04,11.7l-.26.04q-.09.01.26-.04Z"/>
        <path id="mep1_02" data-name="mep1 02" class="cls_14" d="M434.65,585.35c-7.65-7.8-3.85-11.7-.04-11.7s7.64,3.9.04,11.7l-.26.04q-.09.01.26-.04Z"/>
      </g>
      <g id="MStandsp1">
        <path id="msp1_01" data-name="msp1 01" class="cls_14" d="M312.65,755.05c-7.65-7.8-3.85-11.7-.04-11.7s7.64,3.9.04,11.7l-.26.04q-.09.01.26-.04Z"/>
        <path id="msp1_02" data-name="msp1 02" class="cls_14" d="M298.45,713.75c-7.65-7.8-3.85-11.7-.04-11.7s7.64,3.9.04,11.7l-.26.04q-.09.01.26-.04Z"/>
        <path id="msp1_03" data-name="msp1 03" class="cls_14" d="M299.05,653.25c-7.65-7.8-3.85-11.7-.04-11.7s7.64,3.9.04,11.7l-.26.04q-.09.01.26-.04Z"/>
        <path id="msp1_04" data-name="msp1 04" class="cls_14" d="M299.45,592.45c-7.65-7.8-3.85-11.7-.04-11.7s7.64,3.9.04,11.7l-.26.04q-.09.01.26-.04Z"/>
        <path id="msp1_05" data-name="msp1 05" class="cls_14" d="M297.25,486.05c-7.65-7.8-3.85-11.7-.04-11.7s7.64,3.9.04,11.7l-.26.04q-.09.01.26-.04Z"/>
        <path id="msp1_06" data-name="msp1 06" class="cls_14" d="M364.25,461.25c-7.65-7.8-3.85-11.7-.04-11.7s7.64,3.9.04,11.7l-.26.04q-.09.01.26-.04Z"/>
        <path id="msp1_07" data-name="msp1 07" class="cls_14" d="M421.85,473.05c-7.65-7.8-3.85-11.7-.04-11.7s7.64,3.9.04,11.7l-.26.04q-.09.01.26-.04Z"/>
        <path id="msp1_08" data-name="msp1 08" class="cls_14" d="M423.45,533.75c-7.65-7.8-3.85-11.7-.04-11.7s7.64,3.9.04,11.7l-.26.04q-.09.01.26-.04Z"/>
        <path id="msp1_09" data-name="msp1 09" class="cls_14" d="M421.85,647.05c-7.65-7.8-3.85-11.7-.04-11.7s7.64,3.9.04,11.7l-.26.04q-.09.01.26-.04Z"/>
        <path id="msp1_10" data-name="msp1 10" class="cls_14" d="M364.25,659.15c-7.65-7.8-3.85-11.7-.04-11.7s7.64,3.9.04,11.7l-.26.04q-.09.01.26-.04Z"/>
        <path id="msp1_11" data-name="msp1 11" class="cls_14" d="M362.65,597.15c-7.65-7.8-3.85-11.7-.04-11.7s7.64,3.9.04,11.7l-.26.04q-.09.01.26-.04Z"/>
        <path id="msp1_12" data-name="msp1 12" class="cls_14" d="M362.65,536.15c-7.65-7.8-3.85-11.7-.04-11.7s7.64,3.9.04,11.7l-.26.04q-.09.01.26-.04Z"/>
        <path id="msp1_13" data-name="msp1 13" class="cls_14" d="M362.65,494.45c-7.65-7.8-3.85-11.7-.04-11.7s7.64,3.9.04,11.7l-.26.04q-.09.01.26-.04Z"/>
      </g>
    </g>
    <g id="MP2-2">
      <g id="MCafep2">
        <path id="mcp2_01" data-name="mcp2 01" class="cls_14" d="M156.55,763.45c-7.65-7.8-3.85-11.7-.04-11.7s7.64,3.9.04,11.7l-.26.04q-.09.01.26-.04Z"/>
      </g>
      <g id="MStands2">
        <path id="msp2_01" data-name="msp2 01" class="cls_14" d="M71.55,696.45c-7.65-7.8-3.85-11.7-.04-11.7s7.64,3.9.04,11.7l-.26.04q-.09.01.26-.04Z"/>
        <path id="msp2_02" data-name="msp2 02" class="cls_14" d="M71.55,591.25c-7.65-7.8-3.85-11.7-.04-11.7s7.64,3.9.04,11.7l-.26.04q-.09.01.26-.04Z"/>
        <path id="msp2_03" data-name="msp2 03" class="cls_14" d="M72.65,533.75c-7.65-7.8-3.85-11.7-.04-11.7s7.64,3.9.04,11.7l-.26.04q-.09.01.26-.04Z"/>
        <path id="msp2_04" data-name="msp2 04" class="cls_14" d="M72.45,476.05c-7.65-7.8-3.85-11.7-.04-11.7s7.64,3.9.04,11.7l-.26.04q-.09.01.26-.04Z"/>
        <path id="msp2_05" data-name="msp2 05" class="cls_14" d="M110.75,486.05c-7.65-7.8-3.85-11.7-.04-11.7s7.64,3.9.04,11.7l-.26.04q-.09.01.26-.04Z"/>
        <path id="msp2_06" data-name="msp2 06" class="cls_14" d="M142.85,486.05c-7.65-7.8-3.85-11.7-.04-11.7s7.64,3.9.04,11.7l-.26.04q-.09.01.26-.04Z"/>
        <path id="msp2_07" data-name="msp2 07" class="cls_14" d="M133.55,511.35c-7.65-7.8-3.85-11.7-.04-11.7s7.64,3.9.04,11.7l-.26.04q-.09.01.26-.04Z"/>
        <path id="msp2_08" data-name="msp2 08" class="cls_14" d="M132.25,558.55c-7.65-7.8-3.85-11.7-.04-11.7s7.64,3.9.04,11.7l-.26.04q-.09.01.26-.04Z"/>
        <path id="msp2_09" data-name="msp2 09" class="cls_14" d="M132.25,642.65c-7.65-7.8-3.85-11.7-.04-11.7s7.64,3.9.04,11.7l-.26.04q-.09.01.26-.04Z"/>
        <path id="msp2_10" data-name="msp2 10" class="cls_14" d="M115.95,702.35c-7.65-7.8-3.85-11.7-.04-11.7s7.64,3.9.04,11.7l-.26.04q-.09.01.26-.04Z"/>
        <path id="msp2_11" data-name="msp2 11" class="cls_14" d="M149.65,702.35c-7.65-7.8-3.85-11.7-.04-11.7s7.64,3.9.04,11.7l-.26.04q-.09.01.26-.04Z"/>
        <path id="msp2_12" data-name="msp2 12" class="cls_14" d="M111.65,735.35c-7.65-7.8-3.85-11.7-.04-11.7s7.64,3.9.04,11.7l-.26.04q-.09.01.26-.04Z"/>
        <path id="msp2_13" data-name="msp2 13" class="cls_14" d="M146.75,728.45c-7.65-7.8-3.85-11.7-.04-11.7s7.64,3.9.04,11.7l-.26.04q-.09.01.26-.04Z"/>
        <path id="msp2_14" data-name="msp2 14" class="cls_14" d="M192.95,734.35c-7.65-7.8-3.85-11.7-.04-11.7s7.64,3.9.04,11.7l-.26.04q-.09.01.26-.04Z"/>
        <path id="msp2_15" data-name="msp2 15" class="cls_14" d="M193.25,695.65c-7.65-7.8-3.85-11.7-.04-11.7s7.64,3.9.04,11.7l-.26.04q-.09.01.26-.04Z"/>
        <path id="msp2_16" data-name="msp2 16" class="cls_14" d="M193.25,636.05c-7.65-7.8-3.85-11.7-.04-11.7s7.64,3.9.04,11.7l-.26.04q-.09.01.26-.04Z"/>
        <path id="msp2_17" data-name="msp2 17" class="cls_14" d="M193.25,576.75c-7.6-7.85-3.77-11.73.04-11.7s7.61,3.95-.04,11.7l-.26.04q-.09.01.26-.04Z"/>
        <path id="msp2_18" data-name="msp2 18" class="cls_14" d="M193.25,533.25c-7.6-7.85-3.77-11.73.04-11.7s7.61,3.95-.04,11.7l-.26.04q-.09.01.26-.04Z"/>
        <path id="msp2_19" data-name="msp2 19" class="cls_14" d="M193.25,508.25c-7.6-7.85-3.77-11.73.04-11.7s7.61,3.95-.04,11.7l-.26.04q-.09.01.26-.04Z"/>
        <path id="msp2_20" data-name="msp2 20" class="cls_14" d="M178.05,477.85c-7.6-7.85-3.77-11.73.04-11.7s7.61,3.95-.04,11.7l-.26.04q-.09.01.26-.04Z"/>
        <path id="msp2_21" data-name="msp2 21" class="cls_14" d="M203.15,477.55c-7.6-7.85-3.77-11.73.04-11.7s7.61,3.95-.04,11.7l-.26.04q-.09.01.26-.04Z"/>
        <path id="msp2_22" data-name="msp2 22" class="cls_14" d="M194.05,457.75c-7.6-7.85-3.77-11.73.04-11.7s7.61,3.95-.04,11.7l-.26.04q-.09.01.26-.04Z"/>
      </g>
    </g>
    <g id="MP4-2">
      <g id="MCafep4">
        <path id="mcp2_01-2" data-name="mcp2 01" class="cls_14" d="M132.05,365.75c-7.65-7.8-3.85-11.7-.04-11.7s7.64,3.9.04,11.7l-.26.04q-.09.01.26-.04Z"/>
      </g>
      <g id="MStands4">
        <path id="msp4_01" data-name="msp4 01" class="cls_14" d="M67.95,313.65c-7.65-7.8-3.85-11.7-.04-11.7s7.64,3.9.04,11.7l-.26.04q-.09.01.26-.04Z"/>
        <path id="msp4_02" data-name="msp4 02" class="cls_14" d="M130.65,287.75c-7.65-7.8-3.85-11.7-.04-11.7s7.64,3.9.04,11.7l-.26.04q-.09.01.26-.04Z"/>
        <path id="msp4_03" data-name="msp4 03" class="cls_14" d="M131.15,150.85c-14.25-13.8-7.17-20.67-.07-20.66s14.23,6.91.07,20.66l-.52.07q-.17.02.52-.07Z"/>
        <path id="msp4_04" data-name="msp4 04" class="cls_14" d="M193.05,297.35c-7.65-7.8-3.85-11.7-.04-11.7s7.64,3.9.04,11.7l-.26.04q-.09.01.26-.04Z"/>
        <path id="msp4_05" data-name="msp4 05" class="cls_14" d="M192.75,351.55c-7.65-7.8-3.85-11.7-.04-11.7s7.64,3.9.04,11.7l-.26.04q-.09.01.26-.04Z"/>
        <path id="msp4_06" data-name="msp4 06" class="cls_14" d="M193.05,375.15c-7.65-7.8-3.85-11.7-.04-11.7s7.64,3.9.04,11.7l-.26.04q-.09.01.26-.04Z"/>
      </g>
    </g>
  </g>
</svg>